<?xml version="1.0" standalone="no"?>
<svg version="1.0" xmlns="http://www.w3.org/2000/svg"
 width="2579.000000pt" height="2249.000000pt" viewBox="0 0 2579.000000 2249.000000"
 preserveAspectRatio="xMidYMid meet">
<g transform="translate(0.000000,2249.000000) scale(0.100000,-0.100000)"
fill="#000000" stroke="none">
<path d="M13726 22354 c-184 -44 -342 -200 -391 -385 -13 -46 -15 -335 -15
-1920 0 -1481 -3 -1869 -12 -1876 -7 -6 -1055 -544 -2329 -1198 l-2315 -1187
-3779 -6546 c-2079 -3600 -3788 -6571 -3799 -6601 -24 -70 -32 -209 -16 -284
38 -186 192 -350 383 -408 87 -27 242 -23 327 8 30 11 771 433 1645 938 875
505 1597 920 1606 922 9 3 975 -615 2209 -1411 l2193 -1416 7586 2 7586 3 65
23 c185 67 314 215 355 408 40 186 -11 354 -149 489 -67 67 -150 116 -1674
994 l-1603 924 6 71 c3 39 62 1213 131 2609 l125 2539 -32 56 c-94 168 -7468
12938 -7505 12999 -128 207 -363 304 -598 247z m303 -5417 c388 -672 2248
-3894 4133 -7161 1886 -3266 3427 -5940 3425 -5942 -2 -2 -3725 -3 -8273 -2
l-8269 3 1827 3165 c1005 1741 2866 4964 4135 7162 1270 2199 2310 3998 2313
3998 3 -1 322 -551 709 -1223z"/>
<path d="M10261 10374 c-1678 -2908 -3050 -5288 -3048 -5290 2 -2 2752 -3
6110 -2 l6107 3 -3053 5287 c-1678 2908 -3055 5288 -3058 5288 -3 0 -1379
-2379 -3058 -5286z"/>
</g>
</svg>
