<?xml version="1.0" encoding="UTF-8"?>
<svg version="1.1" xmlns="http://www.w3.org/2000/svg" width="75" height="75">
<path d="M0 0 C0.99064453 -0.020625 1.98128906 -0.04125 3.00195312 -0.0625 C16.80383689 -0.13490332 28.58144322 4.96886959 38.625 14.5 C46.16049173 22.65370481 51.33030451 32.72308378 56.8125 42.3125 C57.79821612 44.0288868 58.7839363 45.74527128 59.76989746 47.46151733 C60.78355824 49.22667575 61.79615132 50.99244332 62.80859375 52.75830078 C65.96542744 58.26195091 69.14008655 63.7553215 72.3125 69.25 C73.55865944 71.41011836 74.80475299 73.57027472 76.05078125 75.73046875 C78.58865993 80.12959075 81.12786583 84.52794321 83.66796875 88.92578125 C89.88681517 99.6950031 96.09041176 110.47233464 102.25244141 121.27416992 C110.97562898 136.55503924 119.7980687 151.77921216 128.6184082 167.00415039 C132.44029223 173.6027901 136.25224184 180.20714149 140.0625 186.8125 C140.69599365 187.91062012 141.3294873 189.00874023 141.98217773 190.14013672 C145.19408901 195.7084218 148.40465348 201.27747844 151.61328125 206.84765625 C158.29277424 218.43963554 165.00191163 230.01322984 171.75415039 241.56298828 C175.97544631 248.7925023 180.13840523 256.05365998 184.28076172 263.32861328 C188.59912221 270.9017618 192.99012277 278.43139359 197.390625 285.95703125 C202.3634052 294.46625252 207.28994255 303.00158547 212.20849609 311.54223633 C216.36331103 318.75168324 220.54796523 325.94299339 224.75 333.125 C232.88327498 347.03687832 240.85561766 361.04009744 248.83325195 375.04150391 C256.69356508 388.83608072 264.57987333 402.61319927 272.59643555 416.31787109 C280.0271741 429.02410779 287.36153976 441.7859423 294.70800781 454.54101562 C301.38206312 466.12681766 308.06714084 477.70553353 314.8125 489.25 C321.55951194 500.79729516 328.24589318 512.37902027 334.92138672 523.96777344 C337.4256413 528.3141714 339.93243352 532.65910273 342.43945312 537.00390625 C344.31540515 540.25503479 346.19090529 543.50642374 348.06640625 546.7578125 C350.55180902 551.06601651 353.03891977 555.37322789 355.52734375 559.6796875 C362.34752637 571.48629484 369.1357326 583.31027 375.88986206 595.15472412 C380.48644223 603.21263212 385.1257416 611.24417786 389.8125 619.25 C394.84430793 627.84522847 399.81624869 636.47320125 404.75 645.125 C415.2538396 663.54198088 425.84582164 681.90673598 436.54345703 700.21191406 C441.46407575 708.63738484 446.33983731 717.08830355 451.20922852 725.54345703 C455.3637582 732.7525194 459.54805379 739.94349192 463.75 747.125 C469.17180863 756.39494037 474.51454974 765.70831855 479.83172607 775.03845215 C484.47025244 783.17570022 489.14629692 791.28970831 493.875 799.375 C507.24280088 822.2317046 520.38500865 845.21727137 533.50488281 868.21679688 C542.58988722 884.14194833 551.71367125 900.04041282 561.0625 915.8125 C571.52989408 933.48109951 581.71402921 951.31322806 591.88830566 969.15161133 C597.07297324 978.23901974 602.31656155 987.29051889 607.59838867 996.32177734 C620.36716936 1018.160023 632.90664141 1040.13040089 645.44042969 1062.10400391 C656.71116153 1081.86216869 668.06521913 1101.57122769 679.54248047 1121.21020508 C684.46338468 1129.63626895 689.33950979 1138.08773485 694.20922852 1146.54345703 C698.3637582 1153.7525194 702.54805379 1160.94349192 706.75 1168.125 C712.17180863 1177.39494037 717.51454974 1186.70831855 722.83172607 1196.03845215 C728.03214031 1205.16140571 733.29054777 1214.24884528 738.59375 1223.3125 C743.49887297 1231.69903679 748.3547495 1240.11337713 753.20288086 1248.53295898 C757.4198404 1255.85099392 761.67055088 1263.14852456 765.9375 1270.4375 C771.01151496 1279.10986562 776.03221996 1287.81036276 780.88989258 1296.60620117 C783.66951072 1301.60866054 786.56579277 1306.45420118 789.73828125 1311.21875 C790.38667969 1312.22744141 791.03507812 1313.23613281 791.703125 1314.27539062 C792.92509764 1316.16671617 794.18587421 1318.03393587 795.49609375 1319.86523438 C801.84784599 1329.87867027 800.35244314 1340.88329307 799.8125 1352.25 C799.72065794 1354.55840018 799.62961362 1356.86683222 799.53930664 1359.17529297 C799.22650427 1366.68235848 798.83378565 1374.18446053 798.4375 1381.6875 C798.29903488 1384.38502356 798.16255996 1387.08264663 798.02612305 1389.78027344 C797.46988974 1400.74317168 796.89420423 1411.7050467 796.31750488 1422.66688538 C796.12763408 1426.28898101 795.94055122 1429.9112178 795.75384521 1433.53347778 C795.63025437 1435.89941408 795.5012454 1438.26500525 795.37158203 1440.63061523 C794.94687191 1448.64513668 794.72832529 1456.61798716 794.85884094 1464.6449585 C794.90087173 1468.3480654 794.5836711 1471.64043662 793.8125 1475.25 C793.60953837 1477.74174165 793.44155331 1480.21945831 793.3125 1482.71484375 C793.2723024 1483.44654785 793.2321048 1484.17825195 793.19068909 1484.93212891 C793.05999885 1487.35036526 792.93579707 1489.76887607 792.8125 1492.1875 C792.76825897 1493.03176544 792.72401794 1493.87603088 792.67843628 1494.74588013 C792.04590208 1506.89175999 791.62952782 1519.02848368 791.375 1531.1875 C790.99303515 1549.27070383 790.00246524 1567.30754432 788.97338867 1585.36401367 C787.99345804 1602.59711942 787.16371229 1619.83184684 786.45922852 1637.07836914 C786.42242477 1637.95697098 786.38562103 1638.83557281 786.34770203 1639.74079895 C786.2807556 1641.34274017 786.2159722 1642.94477443 786.15412903 1644.54692078 C785.99121383 1648.43111372 785.72109493 1652.27856965 785.32836914 1656.14648438 C784.63468089 1663.50585428 784.44602737 1670.88117176 784.2123127 1678.26648712 C784.12689815 1680.95380396 784.03693271 1683.64093577 783.94578552 1686.32806396 C783.68750763 1693.96199103 783.43606524 1701.59613251 783.19018555 1709.23046875 C782.56673523 1728.51440748 781.93511337 1747.72181096 780.02877808 1766.92977905 C778.59545914 1782.30635666 778.52663362 1797.78476088 778.26025391 1813.21362305 C778.20868969 1816.13078584 778.15151234 1819.04779812 778.09375 1821.96484375 C778.07338684 1823.30058693 778.07338684 1823.30058693 778.0526123 1824.66331482 C778.02753601 1825.89719688 778.02753601 1825.89719688 778.00195312 1827.15600586 C777.98942505 1827.87670761 777.97689697 1828.59740936 777.96398926 1829.33995056 C777.8125 1831.25 777.8125 1831.25 776.8125 1834.25 C775.23832394 1845.39312334 775.23832394 1845.39312334 778.41015625 1855.70703125 C781.10044714 1857.60361711 783.80981583 1858.89667756 786.8125 1860.25 C788.80220905 1861.32767171 790.76597645 1862.44629089 792.73291016 1863.56494141 C795.03132087 1864.86559243 797.34594175 1866.13328411 799.6640625 1867.3984375 C805.27078367 1870.48093938 810.7928816 1873.70226527 816.3125 1876.9375 C824.75506403 1881.88189073 833.21057875 1886.80221371 841.6875 1891.6875 C842.76563965 1892.30898926 843.8437793 1892.93047852 844.95458984 1893.57080078 C848.24028559 1895.46434377 851.52632874 1897.35728237 854.8125 1899.25 C868.48804314 1907.12662589 882.15210958 1915.02120092 895.77832031 1922.98291016 C907.42909185 1929.78587623 919.12153744 1936.51642186 930.8125 1943.25 C943.60105452 1950.61575203 956.38414102 1957.98947263 969.125 1965.4375 C981.82309134 1972.85721366 994.57642867 1980.17711055 1007.390625 1987.39453125 C1020.2580795 1994.64197139 1033.04600396 2002.01305433 1045.78759766 2009.47949219 C1049.82781851 2011.84427682 1053.87360478 2014.19944534 1057.91967773 2016.55419922 C1060.91231036 2018.29782353 1063.90160231 2020.04707127 1066.890625 2021.796875 C1070.86698368 2024.12276887 1074.85762533 2026.42122114 1078.859375 2028.703125 C1088.42859855 2034.19803292 1096.97868461 2039.41618461 1104.8125 2047.25 C1105.4725 2047.58 1106.1325 2047.91 1106.8125 2048.25 C1108.68287463 2051.13103321 1110.21737372 2054.20971659 1111.8125 2057.25 C1112.27527344 2058.12269531 1112.73804687 2058.99539062 1113.21484375 2059.89453125 C1119.3676434 2071.78994391 1119.90940771 2087.41720236 1116.6875 2100.4375 C1111.80415021 2114.67680033 1103.22041033 2124.10504132 1090.8125 2132.25 C1090.17828125 2132.67410156 1089.5440625 2133.09820313 1088.890625 2133.53515625 C1075.22381095 2141.4873069 1056.48117823 2139.67298797 1041.34632111 2139.62473011 C1038.76171788 2139.62755907 1036.17711582 2139.63170269 1033.59251654 2139.63703534 C1027.97359229 2139.64651105 1022.35475689 2139.64493911 1016.73583299 2139.63600711 C1008.32422856 2139.62269333 999.91269267 2139.62681818 991.50108417 2139.63423897 C977.16254771 2139.64638357 962.8240448 2139.64434655 948.48550797 2139.63453293 C933.95984958 2139.62464443 919.43421153 2139.62130107 904.90855026 2139.62590981 C903.53121106 2139.62634036 903.53121106 2139.62634036 902.12604682 2139.62677962 C898.38613276 2139.62797109 894.64621872 2139.62921024 890.9063047 2139.63050953 C856.09095828 2139.64260317 821.27562735 2139.64007762 786.46028137 2139.62832069 C752.91347594 2139.61700893 719.36667741 2139.61103275 685.81987 2139.61250877 C683.71322614 2139.61259418 681.60658228 2139.61267906 679.49993842 2139.61276341 C671.03434675 2139.61311125 662.56875509 2139.61349634 654.10316342 2139.61392899 C630.43896146 2139.6151236 606.77475954 2139.61530551 583.11055756 2139.61472607 C582.03296527 2139.61470004 580.95537299 2139.61467401 579.84512639 2139.6146472 C545.50969796 2139.61374857 511.17427168 2139.60845064 476.8388443 2139.6000185 C475.72522602 2139.59974531 474.61160774 2139.59947212 473.46424345 2139.59919066 C455.37958861 2139.59473694 437.29493384 2139.59002219 419.21027908 2139.58529177 C347.46342547 2139.56654142 275.71658239 2139.56012913 203.96972656 2139.56567383 C199.43468763 2139.56602081 194.89964871 2139.56636643 190.36460978 2139.56671212 C189.24333988 2139.56679772 188.12206998 2139.56688333 186.9668222 2139.56697152 C174.54941722 2139.56791763 162.13201223 2139.56882935 149.71460724 2139.56969929 C148.60108394 2139.56977821 147.48756064 2139.56985712 146.3402942 2139.56993843 C86.2528999 2139.574159 26.16550679 2139.56885846 -33.92188692 2139.560188 C-36.03963544 2139.55988471 -38.15738396 2139.55958181 -40.27513248 2139.5592793 C-41.32200239 2139.55912971 -42.3688723 2139.55898011 -43.44746553 2139.55882599 C-45.55951405 2139.55852457 -47.67156258 2139.55822358 -49.7836111 2139.55792303 C-55.04535887 2139.55717417 -60.30710664 2139.55641818 -65.5688544 2139.55564686 C-88.64524994 2139.55229682 -111.72164461 2139.5502302 -134.79804039 2139.55158257 C-136.35872072 2139.55167338 -136.35872072 2139.55167338 -137.95092994 2139.55176603 C-143.18968005 2139.55207801 -148.42843016 2139.55241143 -153.66718028 2139.55275235 C-191.49925978 2139.55520112 -229.33132904 2139.55116111 -267.16340572 2139.53554235 C-270.88719005 2139.53403236 -274.6109744 2139.53255233 -278.33475876 2139.5310955 C-279.2486569 2139.53073476 -280.16255503 2139.53037402 -281.10414705 2139.53000235 C-295.5963545 2139.52445794 -310.08855339 2139.52560532 -324.58076105 2139.52950034 C-338.81793916 2139.53318262 -353.05510065 2139.52974349 -367.29227507 2139.51863613 C-375.64696458 2139.51232921 -384.00161163 2139.51150998 -392.35630067 2139.51869573 C-398.54698827 2139.52341198 -404.73762486 2139.51777971 -410.92830564 2139.50800393 C-413.42588129 2139.50568475 -415.92346281 2139.50675795 -418.42103498 2139.51152648 C-421.79937559 2139.51749312 -425.17747891 2139.51123633 -428.55580664 2139.501849 C-429.5266809 2139.50651234 -430.49755516 2139.51117569 -431.49784985 2139.51598036 C-440.06653433 2139.46834933 -446.47963081 2138.18594577 -453.625 2133.125 C-454.93037812 2132.21989023 -456.23783202 2131.31776996 -457.546875 2130.41796875 C-458.27326172 2129.91700684 -458.99964844 2129.41604492 -459.74804688 2128.89990234 C-464.55882491 2125.64617556 -469.47513877 2122.55468286 -474.375 2119.4375 C-482.00033688 2114.57359965 -489.61206046 2109.69127721 -497.1875 2104.75 C-504.5988968 2099.91703581 -512.0425166 2095.13651856 -519.5 2090.375 C-530.59176274 2083.29114938 -541.62150977 2076.11565084 -552.63769531 2068.91503906 C-563.1555819 2062.04679064 -573.72671734 2055.26300459 -584.3125 2048.5 C-593.41432732 2042.68475278 -602.47697892 2036.81313811 -611.51538086 2030.89990234 C-619.66347357 2025.5758764 -627.85884322 2020.32771775 -636.0625 2015.08984375 C-643.26454698 2010.4887851 -650.43842151 2005.84676486 -657.59716797 2001.17871094 C-664.20785316 1996.87364903 -670.85084822 1992.62035304 -677.5 1988.375 C-686.54016677 1982.60209741 -695.540283 1976.77174218 -704.51611328 1970.89941406 C-712.65819021 1965.57934665 -720.84761389 1960.33526327 -729.04492188 1955.10083008 C-738.03423549 1949.35742325 -746.98132223 1943.55093007 -755.91894531 1937.72753906 C-765.91032023 1931.22002712 -775.93393523 1924.76643019 -786 1918.375 C-795.66448794 1912.23791175 -805.27174469 1906.01669219 -814.86181641 1899.76416016 C-819.15434982 1896.96946225 -823.45738833 1894.19101949 -827.75952148 1891.41113281 C-831.51895169 1888.98059911 -835.27395843 1886.54351834 -839.0234375 1884.09765625 C-849.65217612 1877.16641026 -860.29385679 1870.25206307 -871.09179688 1863.5859375 C-872.5215846 1862.6744978 -873.92381507 1861.71870883 -875.29882812 1860.7265625 C-875.97880859 1860.24960938 -876.65878906 1859.77265625 -877.359375 1859.28125 C-877.95331055 1858.84361328 -878.54724609 1858.40597656 -879.15917969 1857.95507812 C-882.3075339 1856.86065745 -884.17910017 1857.97875919 -887.1875 1859.25 C-889.17650558 1860.24475484 -891.1408741 1861.28983211 -893.08203125 1862.375 C-894.19328369 1862.99375 -895.30453613 1863.6125 -896.44946289 1864.25 C-897.63312741 1864.91639648 -898.81663644 1865.58306923 -900 1866.25 C-901.22831589 1866.93771144 -902.45675113 1867.62520974 -903.68530273 1868.3125 C-911.42037215 1872.64901015 -919.09663788 1877.077408 -926.71875 1881.609375 C-932.36452954 1884.96024971 -938.05994537 1888.22509162 -943.75 1891.5 C-952.49514518 1896.53543174 -961.22510603 1901.59560815 -969.9375 1906.6875 C-978.32728779 1911.59014639 -986.73803436 1916.45097645 -995.1875 1921.25 C-995.79835449 1921.6119043 -996.40920898 1921.97380859 -997.03857422 1922.34667969 C-1001.97625438 1925.25 -1001.97625438 1925.25 -1004.1875 1925.25 C-1004.1875 1925.91 -1004.1875 1926.57 -1004.1875 1927.25 C-1004.85652344 1927.56710937 -1005.52554687 1927.88421875 -1006.21484375 1928.2109375 C-1012.93607604 1931.47682487 -1019.36997776 1935.05297668 -1025.78540039 1938.87475586 C-1032.82969991 1943.06348515 -1039.94201503 1947.1302372 -1047.0625 1951.1875 C-1049.50541053 1952.58037484 -1051.94809611 1953.97364353 -1054.390625 1955.3671875 C-1054.98203278 1955.70459457 -1055.57344055 1956.04200165 -1056.18276978 1956.38963318 C-1062.57722116 1960.03989098 -1068.94792459 1963.73048942 -1075.31640625 1967.42578125 C-1081.12167854 1970.79412305 -1086.93596855 1974.14680713 -1092.75 1977.5 C-1094.39742187 1978.45036133 -1094.39742187 1978.45036133 -1096.078125 1979.41992188 C-1101.64622581 1982.63178911 -1107.21513584 1985.84224414 -1112.78515625 1989.05078125 C-1123.22772962 1995.06799341 -1133.65959339 2001.10193352 -1144.0625 2007.1875 C-1154.07481369 2013.04407372 -1164.13597627 2018.81174463 -1174.2199707 2024.54370117 C-1180.06432444 2027.86926971 -1185.87337252 2031.24071912 -1191.62768555 2034.7199707 C-1206.78008914 2043.85882404 -1222.82517939 2048.32594436 -1240.5625 2044.125 C-1255.63453618 2039.10098794 -1266.93785422 2029.8152374 -1275.1875 2016.25 C-1279.3252999 2007.71054049 -1280.38988994 2000.5279866 -1280.4375 1991.125 C-1280.4684375 1989.63226562 -1280.4684375 1989.63226562 -1280.5 1988.109375 C-1280.5526871 1978.01979544 -1277.96868657 1969.9504892 -1273.125 1961.1875 C-1272.72998291 1960.45764893 -1272.33496582 1959.72779785 -1271.92797852 1958.97583008 C-1268.87053761 1953.37423248 -1265.66402537 1947.86407116 -1262.40087891 1942.38037109 C-1258.35182716 1935.5710864 -1254.42234544 1928.69533924 -1250.5 1921.8125 C-1249.11362377 1919.38131494 -1247.72685296 1916.95035524 -1246.33984375 1914.51953125 C-1245.82059074 1913.60949593 -1245.82059074 1913.60949593 -1245.29084778 1912.68107605 C-1236.45967828 1897.21128461 -1227.51968816 1881.80495136 -1218.52685547 1866.42871094 C-1214.03222573 1858.72975166 -1209.60150101 1850.99531754 -1205.1875 1843.25 C-1199.64829375 1833.530267 -1194.05603907 1823.84350314 -1188.40625 1814.1875 C-1184.13866745 1806.89099831 -1179.90601044 1799.5749718 -1175.6875 1792.25 C-1170.87905242 1783.90197491 -1166.04844289 1775.56756768 -1161.1875 1767.25 C-1154.44467492 1755.71014465 -1147.76287423 1744.13564388 -1141.09179688 1732.55419922 C-1139.17243338 1729.22385748 -1137.25067647 1725.89490852 -1135.328125 1722.56640625 C-1129.59457981 1712.63895319 -1123.86812562 1702.7078476 -1118.1875 1692.75 C-1111.86736958 1681.67113303 -1105.49013762 1670.62544108 -1099.11083984 1659.58056641 C-1096.59113929 1655.21730734 -1094.07330023 1650.85297586 -1091.55566406 1646.48852539 C-1090.30905088 1644.32747941 -1089.06230584 1642.16650949 -1087.81542969 1640.00561523 C-1084.67593692 1634.56467303 -1081.5378312 1629.12293898 -1078.40234375 1623.6796875 C-1072.38002671 1613.22793801 -1066.34080663 1602.78700452 -1060.25 1592.375 C-1055.17474877 1583.69737759 -1050.16491233 1574.98394432 -1045.1875 1566.25 C-1039.65121887 1556.53539974 -1034.0623637 1546.8534846 -1028.41503906 1537.20288086 C-1024.05936819 1529.75646857 -1019.74223412 1522.28846037 -1015.4375 1514.8125 C-1011.3601348 1507.73402843 -1007.27526536 1500.66101699 -1003.125 1493.625 C-1002.74110107 1492.9738623 -1002.35720215 1492.32272461 -1001.96166992 1491.65185547 C-1001.15511695 1490.28401323 -1000.34855749 1488.91617481 -999.54199219 1487.54833984 C-988.90762931 1469.51728261 -988.90762931 1469.51728261 -978.6875 1451.25 C-973.59557238 1441.89462682 -968.24316319 1432.70309255 -962.85546875 1423.515625 C-959.12424029 1417.15228965 -955.43271942 1410.76650445 -951.75 1404.375 C-951.12770508 1403.29524902 -950.50541016 1402.21549805 -949.86425781 1401.10302734 C-948.60221274 1398.91285466 -947.34033148 1396.72258757 -946.07861328 1394.53222656 C-942.32721976 1388.02128743 -938.57059006 1381.51336806 -934.81494141 1375.00488281 C-931.67567754 1369.56414664 -928.53768503 1364.12268523 -925.40234375 1358.6796875 C-918.78608883 1347.19693103 -912.14359989 1335.73039099 -905.45678711 1324.28857422 C-900.54047151 1315.87027289 -895.66814822 1307.427017 -890.80395508 1298.97851562 C-886.52452167 1291.55111475 -882.20719567 1284.14672005 -877.875 1276.75 C-873.45913751 1269.20661617 -869.14353372 1261.62005698 -864.93530273 1253.95922852 C-861.71757243 1248.13210476 -858.34459876 1242.40557995 -854.9375 1236.6875 C-850.24978559 1228.81700871 -845.70278544 1220.88069183 -841.25 1212.875 C-835.54532298 1202.6222236 -829.68689841 1192.46966292 -823.75390625 1182.34765625 C-820.0341506 1175.99953337 -816.35860157 1169.62634815 -812.6875 1163.25 C-804.98102179 1149.87254822 -797.20420899 1136.5367381 -789.40966797 1123.21044922 C-782.79156976 1111.8948202 -776.20601212 1100.56348545 -769.71948242 1089.171875 C-765.97866537 1082.61141786 -762.18650517 1076.08211009 -758.375 1069.5625 C-751.56226649 1057.90906578 -744.81180544 1046.22044367 -738.07421875 1034.5234375 C-736.2078162 1031.2852484 -734.33876237 1028.04860562 -732.46875 1024.8125 C-726.01416269 1013.6406095 -719.5829526 1002.45582828 -713.1875 991.25 C-702.72635614 972.92233188 -692.18072726 954.64505053 -681.52685547 936.42871094 C-677.03222573 928.72975166 -672.60150101 920.99531754 -668.1875 913.25 C-662.64959671 903.53255332 -657.05778188 893.84858964 -651.41064453 884.1940918 C-642.58250123 869.09648745 -633.85512146 853.9402846 -625.1875 838.75 C-615.93583324 822.53615728 -606.60427692 806.36850743 -597.1875 790.25 C-586.72563934 772.34083791 -576.38484332 754.36300954 -566.1104126 736.3458252 C-560.95839439 727.31418351 -555.74558349 718.31979205 -550.48730469 709.34960938 C-546.95540838 703.31386162 -543.47171324 697.2530979 -540.02331543 691.16943359 C-537.00491088 685.84560032 -533.95534048 680.54021954 -530.89697266 675.23925781 C-529.45816914 672.72330376 -528.05625804 670.1923744 -526.66796875 667.6484375 C-522.08715825 659.52019103 -516.62539616 655.17297171 -508.28027344 651.23925781 C-506.00287995 650.16272977 -503.75553792 649.03556517 -501.5078125 647.8984375 C-498.11589477 646.18556092 -494.71563238 644.4911806 -491.30859375 642.80859375 C-486.51675817 640.43023672 -481.78458122 637.95087399 -477.0625 635.4375 C-468.3891743 630.82873461 -459.61006832 626.44558023 -450.81542969 622.07373047 C-443.49892334 618.4283774 -436.24482024 614.68463948 -429.02734375 610.84765625 C-422.62720015 607.45480904 -416.15530869 604.21853418 -409.66650391 600.99926758 C-403.96376559 598.16120962 -398.31409007 595.23591844 -392.6875 592.25 C-385.51439101 588.443375 -378.28991587 584.75788984 -371.00195312 581.17578125 C-365.46249199 578.43727922 -359.99363397 575.57556664 -354.53125 572.6875 C-342.30778322 566.22874059 -329.98003385 559.97638789 -317.65771484 553.70898438 C-306.8442076 548.20697681 -296.05089308 542.67535994 -285.32595825 537.00245667 C-276.44941141 532.31598592 -267.50353559 527.76617844 -258.55828857 523.21261597 C-253.3707284 520.57169834 -248.18536049 517.92648338 -243 515.28125 C-241.97401703 514.75792587 -240.94803406 514.23460175 -239.89096069 513.69541931 C-230.79827904 509.05553294 -221.72201401 504.38434865 -212.6517334 499.7008667 C-204.05406953 495.26226199 -195.44591924 490.84472173 -186.828125 486.4453125 C-185.83604034 485.9387764 -184.84395569 485.4322403 -183.82180786 484.91035461 C-178.94119825 482.41883235 -174.05978955 479.92889245 -169.17724609 477.44116211 C-155.2622384 470.34513468 -141.40643338 463.14271879 -127.65104675 455.7414856 C-121.10388547 452.22712381 -114.48954321 448.94213641 -107.75 445.8125 C-100.57355358 442.47726679 -93.65343782 438.82556916 -86.77050781 434.92358398 C-81.1283357 431.73504554 -75.40107231 428.77580156 -69.57543945 425.93725586 C-67.77242252 425.05575429 -65.97981659 424.15305941 -64.1875 423.25 C-63.53499268 423.01861328 -62.88248535 422.78722656 -62.21020508 422.54882812 C-59.94362729 421.72243152 -59.94362729 421.72243152 -57.1875 419.25 C-56.17028203 415.33797982 -56.20854058 411.52400284 -56.25 407.5 C-56.23388672 406.42105469 -56.21777344 405.34210938 -56.20117188 404.23046875 C-56.16584299 401.56902607 -56.16243391 398.91144739 -56.1875 396.25 C-55.5275 396.25 -54.8675 396.25 -54.1875 396.25 C-54.19037541 395.53029793 -54.19325082 394.81059587 -54.19621336 394.06908464 C-54.36653741 351.372272 -54.52611245 308.6754307 -54.67181293 265.97852656 C-54.68933371 260.84684947 -54.7069439 255.71517269 -54.72460938 250.58349609 C-54.72812461 249.56191219 -54.73163985 248.54032829 -54.7352616 247.48778731 C-54.79232244 230.96689701 -54.85661931 214.44604246 -54.923611 197.92518979 C-54.99223699 180.96138949 -55.05303889 163.99757402 -55.10664403 147.03371954 C-55.13994069 136.57408473 -55.17927132 126.11450891 -55.22642837 115.65492725 C-55.25822126 108.4732287 -55.28238426 101.29152917 -55.30067255 94.10978365 C-55.31143039 89.97216356 -55.32543192 85.83462504 -55.34853554 81.69705391 C-55.36967463 77.89790323 -55.38108427 74.09884382 -55.38522999 70.29963773 C-55.38981261 68.29729094 -55.40438413 66.29497437 -55.4194895 64.29267931 C-55.41181288 45.4103922 -53.23925726 29.56683715 -39.49609375 15.4296875 C-27.74635538 4.33602589 -15.9854153 0.08161029 0 0 Z M-55.1875 422.25 C-56.54676616 424.08776294 -56.54676616 424.08776294 -57.8828125 426.515625 C-58.42550781 427.4540625 -58.96820312 428.3925 -59.52734375 429.359375 C-60.11644531 430.39578125 -60.70554687 431.4321875 -61.3125 432.5 C-62.23869141 434.10875 -62.23869141 434.10875 -63.18359375 435.75 C-64.85154898 438.65137303 -66.51268484 441.5564091 -68.16955566 444.46411133 C-69.50534563 446.8076306 -70.84424963 449.14936381 -72.18307495 451.4911499 C-74.53206485 455.5998862 -76.87971702 459.70937737 -79.22314453 463.82128906 C-84.05977091 472.3040234 -88.96427917 480.74550415 -93.8984375 489.171875 C-98.37916265 496.83573974 -102.79244224 504.53685835 -107.1875 512.25 C-112.72735933 521.97124506 -118.32124932 531.65894868 -123.97094727 541.31689453 C-130.12516742 551.84084625 -136.21119996 562.40380137 -142.29638672 572.96777344 C-145.42430148 578.39659942 -148.55608448 583.82319281 -151.6875 589.25 C-152.93751879 591.41665583 -154.18751878 593.5833225 -155.4375 595.75 C-197.9375 669.41666667 -240.4375 743.08333333 -282.9375 816.75 C-283.55633057 817.82266113 -284.17516113 818.89532227 -284.81274414 820.00048828 C-286.06185518 822.16557071 -287.31104129 824.33060982 -288.56030273 826.49560547 C-291.69952309 831.93615706 -294.83740563 837.37747216 -297.97265625 842.8203125 C-303.99497329 853.27206199 -310.03419337 863.71299548 -316.125 874.125 C-321.20025123 882.80262241 -326.21008767 891.51605568 -331.1875 900.25 C-336.7275173 909.97115617 -342.32124809 919.65894658 -347.97094727 929.31689453 C-354.12516742 939.84084625 -360.21119996 950.40380137 -366.29638672 960.96777344 C-369.42430148 966.39659942 -372.55608448 971.82319281 -375.6875 977.25 C-376.93751879 979.41665583 -378.18751878 981.5833225 -379.4375 983.75 C-421.9375 1057.41666667 -464.4375 1131.08333333 -506.9375 1204.75 C-507.55633057 1205.82266113 -508.17516113 1206.89532227 -508.81274414 1208.00048828 C-510.06185518 1210.16557071 -511.31104129 1212.33060982 -512.56030273 1214.49560547 C-515.69952309 1219.93615706 -518.83740563 1225.37747216 -521.97265625 1230.8203125 C-527.99497329 1241.27206199 -534.03419337 1251.71299548 -540.125 1262.125 C-545.20025123 1270.80262241 -550.21008767 1279.51605568 -555.1875 1288.25 C-560.7275173 1297.97115617 -566.32124809 1307.65894658 -571.97094727 1317.31689453 C-578.12516742 1327.84084625 -584.21119996 1338.40380137 -590.29638672 1348.96777344 C-593.42430148 1354.39659942 -596.55608448 1359.82319281 -599.6875 1365.25 C-600.93751879 1367.41665583 -602.18751878 1369.5833225 -603.4375 1371.75 C-635.9375 1428.08333333 -668.4375 1484.41666667 -700.9375 1540.75 C-701.55633057 1541.82266113 -702.17516113 1542.89532227 -702.81274414 1544.00048828 C-704.06185518 1546.16557071 -705.31104129 1548.33060982 -706.56030273 1550.49560547 C-709.69952309 1555.93615706 -712.83740563 1561.37747216 -715.97265625 1566.8203125 C-721.99497329 1577.27206199 -728.03419337 1587.71299548 -734.125 1598.125 C-739.20025123 1606.80262241 -744.21008767 1615.51605568 -749.1875 1624.25 C-754.7275173 1633.97115617 -760.32124809 1643.65894658 -765.97094727 1653.31689453 C-772.12516742 1663.84084625 -778.21119996 1674.40380137 -784.29638672 1684.96777344 C-787.42430148 1690.39659942 -790.55608448 1695.82319281 -793.6875 1701.25 C-794.93751879 1703.41665583 -796.18751878 1705.5833225 -797.4375 1707.75 C-814.9375 1738.08333333 -832.4375 1768.41666667 -849.9375 1798.75 C-850.55705566 1799.8239502 -851.17661133 1800.89790039 -851.81494141 1802.00439453 C-853.05661527 1804.1565213 -854.29847522 1806.30854073 -855.54052734 1808.46044922 C-858.44916823 1813.50030977 -861.35601898 1818.54117492 -864.25604248 1823.58599854 C-865.28025665 1825.36749578 -866.30507651 1827.14864322 -867.33007812 1828.9296875 C-868.61383375 1831.16076625 -869.89645939 1833.39249573 -871.17773438 1835.625 C-873.74946371 1840.09213648 -876.336975 1844.52615395 -879.1171875 1848.8671875 C-881.36150255 1851.87330397 -881.36150255 1851.87330397 -881.1875 1854.25 C-335.3675 1854.25 210.4525 1854.25 772.8125 1854.25 C768.98504793 1846.5054426 768.98504793 1846.5054426 764.82421875 1839.0078125 C764.29119141 1838.10160156 763.75816406 1837.19539063 763.20898438 1836.26171875 C762.64501953 1835.30910156 762.08105469 1834.35648438 761.5 1833.375 C756.20624911 1824.36940883 750.98124319 1815.32765603 745.8125 1806.25 C740.27348185 1796.52828146 734.67874414 1786.84104014 729.02905273 1777.18310547 C722.87483258 1766.65915375 716.78880004 1756.09619863 710.70361328 1745.53222656 C707.57569852 1740.10340058 704.44391552 1734.67680719 701.3125 1729.25 C700.06248121 1727.08334417 698.81248122 1724.9166775 697.5625 1722.75 C696.94375 1721.6775 696.325 1720.605 695.6875 1719.5 C585.06250001 1527.75000001 585.06250001 1527.75000001 583.18725586 1524.49951172 C581.93814482 1522.33442929 580.68895871 1520.16939018 579.43969727 1518.00439453 C576.30047691 1512.56384294 573.16259437 1507.12252784 570.02734375 1501.6796875 C564.00502671 1491.22793801 557.96580663 1480.78700452 551.875 1470.375 C546.45328822 1461.10500223 541.11045085 1451.79168248 535.79327393 1442.46154785 C530.59204871 1433.3371716 525.33222122 1424.24867226 520.02905273 1415.18310547 C513.87483258 1404.65915375 507.78880004 1394.09619863 501.70361328 1383.53222656 C498.57569852 1378.10340058 495.44391552 1372.67680719 492.3125 1367.25 C491.06248121 1365.08334417 489.81248122 1362.9166775 488.5625 1360.75 C487.94375 1359.6775 487.325 1358.605 486.6875 1357.5 C376.06250001 1165.75000001 376.06250001 1165.75000001 374.18725586 1162.49951172 C372.93814482 1160.33442929 371.68895871 1158.16939018 370.43969727 1156.00439453 C367.30047691 1150.56384294 364.16259437 1145.12252784 361.02734375 1139.6796875 C355.00502671 1129.22793801 348.96580663 1118.78700452 342.875 1108.375 C337.45328822 1099.10500223 332.11045085 1089.79168248 326.79327393 1080.46154785 C321.59204871 1071.3371716 316.33222122 1062.24867226 311.02905273 1053.18310547 C304.87483258 1042.65915375 298.78880004 1032.09619863 292.70361328 1021.53222656 C289.57569852 1016.10340058 286.44391552 1010.67680719 283.3125 1005.25 C282.06248121 1003.08334417 280.81248122 1000.9166775 279.5625 998.75 C278.94375 997.6775 278.325 996.605 277.6875 995.5 C167.0625 803.75 167.0625 803.75 165.18725586 800.49951172 C163.93814482 798.33442929 162.68895871 796.16939018 161.43969727 794.00439453 C158.30047691 788.56384294 155.16259437 783.12252784 152.02734375 777.6796875 C146.00502671 767.22793801 139.96580663 756.78700452 133.875 746.375 C128.45328822 737.10500223 123.11045085 727.79168248 117.79327393 718.46154785 C112.59204871 709.3371716 107.33222122 700.24867226 102.02905273 691.18310547 C95.87483258 680.65915375 89.78880004 670.09619863 83.70361328 659.53222656 C80.57569852 654.10340058 77.44391552 648.67680719 74.3125 643.25 C73.06248121 641.08334417 71.81248122 638.9166775 70.5625 636.75 C69.634375 635.14125 69.634375 635.14125 68.6875 633.5 C28.0625 563.08333333 -12.5625 492.66666667 -53.1875 422.25 C-53.8475 422.25 -54.5075 422.25 -55.1875 422.25 Z " fill="#010101" transform="translate(1386.1875,11.75)"/>
<path d="M0 0 C0.66 0 1.32 0 2 0 C95.75 162.5 95.75 162.5 97.62524414 165.75048828 C98.87435518 167.91557071 100.12354129 170.08060982 101.37280273 172.24560547 C104.51202309 177.68615706 107.64990563 183.12747216 110.78515625 188.5703125 C116.80747329 199.02206199 122.84669337 209.46299548 128.9375 219.875 C134.35921178 229.14499777 139.70204915 238.45831752 145.01922607 247.78845215 C150.22045129 256.9128284 155.48027878 266.00132774 160.78344727 275.06689453 C166.93766742 285.59084625 173.02369996 296.15380137 179.10888672 306.71777344 C182.23680148 312.14659942 185.36858448 317.57319281 188.5 323 C189.75001879 325.16665583 191.00001878 327.3333225 192.25 329.5 C193.178125 331.10875 193.178125 331.10875 194.125 332.75 C319.74999999 550.49999999 319.74999999 550.49999999 321.62524414 553.75048828 C322.87435518 555.91557071 324.12354129 558.08060982 325.37280273 560.24560547 C328.51202309 565.68615706 331.64990563 571.12747216 334.78515625 576.5703125 C340.80747329 587.02206199 346.84669337 597.46299548 352.9375 607.875 C358.35921178 617.14499777 363.70204915 626.45831752 369.01922607 635.78845215 C374.22045129 644.9128284 379.48027878 654.00132774 384.78344727 663.06689453 C390.93766742 673.59084625 397.02369996 684.15380137 403.10888672 694.71777344 C406.23680148 700.14659942 409.36858448 705.57319281 412.5 711 C413.75001879 713.16665583 415.00001878 715.3333225 416.25 717.5 C416.86875 718.5725 417.4875 719.645 418.125 720.75 C528.75000001 912.50000002 528.75000001 912.50000002 530.62524414 915.75048828 C531.87435518 917.91557071 533.12354129 920.08060982 534.37280273 922.24560547 C537.51202309 927.68615706 540.64990563 933.12747216 543.78515625 938.5703125 C549.80747329 949.02206199 555.84669337 959.46299548 561.9375 969.875 C567.01275369 978.55262662 572.02230332 987.26621513 577 996 C582.02441713 1004.81398411 587.07493041 1013.61172052 592.1875 1022.375 C592.74969238 1023.33946045 593.31188477 1024.3039209 593.89111328 1025.29760742 C596.81911461 1030.30852278 599.77416627 1035.30168568 602.76171875 1040.27734375 C603.67111206 1041.79739014 603.67111206 1041.79739014 604.59887695 1043.34814453 C605.75696635 1045.28099972 606.92061062 1047.21054076 608.09057617 1049.13623047 C608.60467041 1049.99490723 609.11876465 1050.85358398 609.6484375 1051.73828125 C610.10395996 1052.49149658 610.55948242 1053.24471191 611.02880859 1054.02075195 C612 1056 612 1056 612 1059 C208.74 1059 -194.52 1059 -610 1059 C-609.14240421 1054.71202106 -608.50390596 1052.75505043 -606.3671875 1049.17578125 C-605.54069702 1047.77706787 -605.54069702 1047.77706787 -604.69750977 1046.35009766 C-604.09608154 1045.34769043 -603.49465332 1044.3452832 -602.875 1043.3125 C-601.58913841 1041.13974019 -600.30400648 1038.96654843 -599.01953125 1036.79296875 C-598.3538916 1035.67067871 -597.68825195 1034.54838867 -597.00244141 1033.39208984 C-593.81524874 1027.99305852 -590.68875325 1022.5594716 -587.5625 1017.125 C-586.30346844 1014.94005632 -585.04435339 1012.75516075 -583.78515625 1010.5703125 C-582.84760498 1008.94270996 -582.84760498 1008.94270996 -581.89111328 1007.28222656 C-578.76319852 1001.85340058 -575.63141552 996.42680719 -572.5 991 C-571.24998121 988.83334417 -569.99998122 986.6666775 -568.75 984.5 C-546.25 945.5 -523.75 906.5 -501.25 867.5 C-500.63116943 866.42733887 -500.01233887 865.35467773 -499.37475586 864.24951172 C-498.12564482 862.08442929 -496.87645871 859.91939018 -495.62719727 857.75439453 C-492.48797691 852.31384294 -489.35009437 846.87252784 -486.21484375 841.4296875 C-480.19252671 830.97793801 -474.15330663 820.53700452 -468.0625 810.125 C-462.98724877 801.44737759 -457.97741233 792.73394432 -453 784 C-447.4599827 774.27884383 -441.86625191 764.59105342 -436.21655273 754.93310547 C-430.06233258 744.40915375 -423.97630004 733.84619863 -417.89111328 723.28222656 C-414.76319852 717.85340058 -411.63141552 712.42680719 -408.5 707 C-407.24998121 704.83334417 -405.99998122 702.6666775 -404.75 700.5 C-362.25 626.83333333 -319.75 553.16666667 -277.25 479.5 C-276.63116943 478.42733887 -276.01233887 477.35467773 -275.37475586 476.24951172 C-274.12564482 474.08442929 -272.87645871 471.91939018 -271.62719727 469.75439453 C-268.48797691 464.31384294 -265.35009437 458.87252784 -262.21484375 453.4296875 C-256.19252671 442.97793801 -250.15330663 432.53700452 -244.0625 422.125 C-238.98724877 413.44737759 -233.97741233 404.73394432 -229 396 C-223.4599827 386.27884383 -217.86625191 376.59105342 -212.21655273 366.93310547 C-206.06233258 356.40915375 -199.97630004 345.84619863 -193.89111328 335.28222656 C-190.76319852 329.85340058 -187.63141552 324.42680719 -184.5 319 C-183.24998121 316.83334417 -181.99998122 314.6666775 -180.75 312.5 C-117 202 -117 202 -53.25 91.5 C-52.63116943 90.42733887 -52.01233887 89.35467773 -51.37475586 88.24951172 C-50.12564482 86.08442929 -48.87645871 83.91939018 -47.62719727 81.75439453 C-44.48797691 76.31384294 -41.35009437 70.87252784 -38.21484375 65.4296875 C-30.43172254 51.92125973 -22.61995529 38.4302843 -14.73925781 24.97851562 C-12.91864053 21.86067019 -11.11123246 18.73539224 -9.3046875 15.609375 C-8.12003129 13.57277726 -6.93514398 11.53631393 -5.75 9.5 C-5.20069824 8.54319336 -4.65139648 7.58638672 -4.08544922 6.60058594 C-3.57771973 5.73208008 -3.06999023 4.86357422 -2.546875 3.96875 C-2.10182617 3.19982422 -1.65677734 2.43089844 -1.19824219 1.63867188 C-0.80282227 1.09791016 -0.40740234 0.55714844 0 0 Z " fill="#000000" transform="translate(1331,682)"/>
<path d="M0 0 C2.0245738 1.93254772 3.42105792 3.63158688 5 6 C5 6.99 5 7.98 5 9 C-398.26 9 -801.52 9 -1217 9 C-1216.67 7.35 -1216.34 5.7 -1216 4 C-1215.34 3.67 -1214.68 3.34 -1214 3 C-1214 4.32 -1214 5.64 -1214 7 C-812.72 7 -411.44 7 2 7 C1.34 6.01 0.68 5.02 0 4 C0 2.68 0 1.36 0 0 Z " fill="#242021" transform="translate(1938,1732)"/>
<path d="M0 0 C0.33 0 0.66 0 1 0 C1.02469669 6.06892601 1.04285842 12.13782283 1.05493164 18.20678711 C1.05996414 20.27189646 1.06679069 22.33700224 1.07543945 24.40209961 C1.08755236 27.36833578 1.09323911 30.33452489 1.09765625 33.30078125 C1.10281754 34.2258699 1.10797882 35.15095856 1.11329651 36.1040802 C1.11337204 36.96474594 1.11344757 37.82541168 1.11352539 38.7121582 C1.115746 39.46938675 1.11796661 40.2266153 1.12025452 41.00679016 C1 43 1 43 0 46 C-0.22553789 49.16283718 -0.18514482 52.32992924 -0.1875 55.5 C-0.19974609 56.36753906 -0.21199219 57.23507812 -0.22460938 58.12890625 C-0.22654297 58.96292969 -0.22847656 59.79695313 -0.23046875 60.65625 C-0.23457764 61.41744141 -0.23868652 62.17863281 -0.24291992 62.96289062 C-0.1185105 65.3122 -0.1185105 65.3122 2 68 C0.35 67.34 -1.3 66.68 -3 66 C-2.01 44.22 -1.02 22.44 0 0 Z " fill="#DADADB" transform="translate(2163,1800)"/>
<path d="M0 0 C-1.61010527 4.07376031 -4.53822271 6.76507069 -7.625 9.75 C-8.140625 10.25660156 -8.65625 10.76320313 -9.1875 11.28515625 C-10.45383339 12.52803902 -11.7263144 13.76465276 -13 15 C-13 11.30165104 -12.18635778 10.72918572 -9.75 8.0625 C-9.11191406 7.36253906 -8.47382812 6.66257812 -7.81640625 5.94140625 C-7.21699219 5.30074219 -6.61757812 4.66007812 -6 4 C-5.236875 3.175 -4.47375 2.35 -3.6875 1.5 C-2 0 -2 0 0 0 Z " fill="#4D4C4A" transform="translate(1354,22)"/>
<path d="M0 0 C1.17118616 2.34237232 1.08834961 3.64363281 1.02734375 6.24609375 C1.01509766 7.08333984 1.00285156 7.92058594 0.99023438 8.78320312 C0.95515407 10.54891173 0.91610863 12.31454614 0.87304688 14.08007812 C0.86208984 14.91861328 0.85113281 15.75714844 0.83984375 16.62109375 C0.82300537 17.3886499 0.80616699 18.15620605 0.78881836 18.94702148 C0.87069083 21.31157173 0.87069083 21.31157173 3 24 C0.525 23.01 0.525 23.01 -2 22 C-1.86181468 18.52048477 -1.71317399 15.04149505 -1.5625 11.5625 C-1.52318359 10.56927734 -1.48386719 9.57605469 -1.44335938 8.55273438 C-1.40146484 7.60849609 -1.35957031 6.66425781 -1.31640625 5.69140625 C-1.27974854 4.81685791 -1.24309082 3.94230957 -1.20532227 3.04125977 C-1 1 -1 1 0 0 Z " fill="#E2E2E3" transform="translate(2162,1844)"/>
<path d="M0 0 C0.9435441 2.53899138 1.16906025 3.60909275 0.07421875 6.140625 C-0.61220703 7.18476562 -0.61220703 7.18476562 -1.3125 8.25 C-1.76238281 8.95640625 -2.21226562 9.6628125 -2.67578125 10.390625 C-3.11277344 10.92171875 -3.54976562 11.4528125 -4 12 C-4.66 12 -5.32 12 -6 12 C-4.68139111 7.38486888 -2.78644563 3.90102388 0 0 Z " fill="#5A5A5B" transform="translate(749,1690)"/>
<path d="M0 0 C0.9435441 2.53899138 1.16906025 3.60909275 0.07421875 6.140625 C-0.61220703 7.18476562 -0.61220703 7.18476562 -1.3125 8.25 C-1.76238281 8.95640625 -2.21226563 9.6628125 -2.67578125 10.390625 C-3.11277344 10.92171875 -3.54976562 11.4528125 -4 12 C-4.66 12 -5.32 12 -6 12 C-4.68139111 7.38486888 -2.78644563 3.90102388 0 0 Z " fill="#5A5A5B" transform="translate(1182,940)"/>
<path d="M0 0 C0.9435441 2.53899138 1.16906025 3.60909275 0.07421875 6.140625 C-0.61220703 7.18476562 -0.61220703 7.18476562 -1.3125 8.25 C-1.76238281 8.95640625 -2.21226563 9.6628125 -2.67578125 10.390625 C-3.11277344 10.92171875 -3.54976562 11.4528125 -4 12 C-4.66 12 -5.32 12 -6 12 C-4.68139111 7.38486888 -2.78644563 3.90102388 0 0 Z " fill="#5A5A5B" transform="translate(1238,843)"/>
<path d="M0 0 C0.9435441 2.53899138 1.16906025 3.60909275 0.07421875 6.140625 C-0.61220703 7.18476562 -0.61220703 7.18476562 -1.3125 8.25 C-1.76238281 8.95640625 -2.21226563 9.6628125 -2.67578125 10.390625 C-3.11277344 10.92171875 -3.54976562 11.4528125 -4 12 C-4.66 12 -5.32 12 -6 12 C-4.68139111 7.38486888 -2.78644563 3.90102388 0 0 Z " fill="#5A5A5B" transform="translate(1294,746)"/>
<path d="M0 0 C2.61724095 2.36797991 4.32861729 4.89600354 6 8 C6 8.66 6 9.32 6 10 C3 9 3 9 1.3125 6.6875 C0 4 0 4 0 0 Z " fill="#59595A" transform="translate(1912,1687)"/>
<path d="M0 0 C2.61724095 2.36797991 4.32861729 4.89600354 6 8 C6 8.66 6 9.32 6 10 C3 9 3 9 1.3125 6.6875 C0 4 0 4 0 0 Z " fill="#5A5A5B" transform="translate(1897,1661)"/>
<path d="M0 0 C2.61724095 2.36797991 4.32861729 4.89600354 6 8 C6 8.66 6 9.32 6 10 C3 9 3 9 1.3125 6.6875 C0 4 0 4 0 0 Z " fill="#5C5B5C" transform="translate(1882,1635)"/>
<path d="M0 0 C2.61724095 2.36797991 4.32861729 4.89600354 6 8 C6 8.66 6 9.32 6 10 C3 9 3 9 1.3125 6.6875 C0 4 0 4 0 0 Z " fill="#59595A" transform="translate(1856,1590)"/>
<path d="M0 0 C2.61724095 2.36797991 4.32861729 4.89600354 6 8 C6 8.66 6 9.32 6 10 C3 9 3 9 1.3125 6.6875 C0 4 0 4 0 0 Z " fill="#5B5A5B" transform="translate(1841,1564)"/>
<path d="M0 0 C2.61724095 2.36797991 4.32861729 4.89600354 6 8 C6 8.66 6 9.32 6 10 C3 9 3 9 1.3125 6.6875 C0 4 0 4 0 0 Z " fill="#5A595A" transform="translate(1800,1493)"/>
<path d="M0 0 C2.61724095 2.36797991 4.32861729 4.89600354 6 8 C6 8.66 6 9.32 6 10 C3 9 3 9 1.3125 6.6875 C0 4 0 4 0 0 Z " fill="#5B5A5B" transform="translate(1785,1467)"/>
<path d="M0 0 C2.61724095 2.36797991 4.32861729 4.89600354 6 8 C6 8.66 6 9.32 6 10 C3 9 3 9 1.3125 6.6875 C0 4 0 4 0 0 Z " fill="#5A595A" transform="translate(1744,1396)"/>
<path d="M0 0 C2.61724095 2.36797991 4.32861729 4.89600354 6 8 C6 8.66 6 9.32 6 10 C3 9 3 9 1.3125 6.6875 C0 4 0 4 0 0 Z " fill="#5B5A5B" transform="translate(1729,1370)"/>
<path d="M0 0 C2.61724095 2.36797991 4.32861729 4.89600354 6 8 C6 8.66 6 9.32 6 10 C3 9 3 9 1.3125 6.6875 C0 4 0 4 0 0 Z " fill="#59595A" transform="translate(1703,1325)"/>
<path d="M0 0 C2.61724095 2.36797991 4.32861729 4.89600354 6 8 C6 8.66 6 9.32 6 10 C3 9 3 9 1.3125 6.6875 C0 4 0 4 0 0 Z " fill="#5A5A5B" transform="translate(1688,1299)"/>
<path d="M0 0 C2.61724095 2.36797991 4.32861729 4.89600354 6 8 C6 8.66 6 9.32 6 10 C3 9 3 9 1.3125 6.6875 C0 4 0 4 0 0 Z " fill="#5B5A5B" transform="translate(1673,1273)"/>
<path d="M0 0 C2.61724095 2.36797991 4.32861729 4.89600354 6 8 C6 8.66 6 9.32 6 10 C3 9 3 9 1.3125 6.6875 C0 4 0 4 0 0 Z " fill="#59595A" transform="translate(1647,1228)"/>
<path d="M0 0 C2.61724095 2.36797991 4.32861729 4.89600354 6 8 C6 8.66 6 9.32 6 10 C3 9 3 9 1.3125 6.6875 C0 4 0 4 0 0 Z " fill="#5A5A5B" transform="translate(1632,1202)"/>
<path d="M0 0 C2.61724095 2.36797991 4.32861729 4.89600354 6 8 C6 8.66 6 9.32 6 10 C3 9 3 9 1.3125 6.6875 C0 4 0 4 0 0 Z " fill="#5B5A5B" transform="translate(1617,1176)"/>
<path d="M0 0 C2.61724095 2.36797991 4.32861729 4.89600354 6 8 C6 8.66 6 9.32 6 10 C3 9 3 9 1.3125 6.6875 C0 4 0 4 0 0 Z " fill="#59595A" transform="translate(1591,1131)"/>
<path d="M0 0 C2.61724095 2.36797991 4.32861729 4.89600354 6 8 C6 8.66 6 9.32 6 10 C3 9 3 9 1.3125 6.6875 C0 4 0 4 0 0 Z " fill="#5A5A5B" transform="translate(1576,1105)"/>
<path d="M0 0 C2.61724095 2.36797991 4.32861729 4.89600354 6 8 C6 8.66 6 9.32 6 10 C3 9 3 9 1.3125 6.6875 C0 4 0 4 0 0 Z " fill="#5B5A5B" transform="translate(1561,1079)"/>
<path d="M0 0 C2.61724095 2.36797991 4.32861729 4.89600354 6 8 C6 8.66 6 9.32 6 10 C3 9 3 9 1.3125 6.6875 C0 4 0 4 0 0 Z " fill="#59595A" transform="translate(1535,1034)"/>
<path d="M0 0 C2.61724095 2.36797991 4.32861729 4.89600354 6 8 C6 8.66 6 9.32 6 10 C3 9 3 9 1.3125 6.6875 C0 4 0 4 0 0 Z " fill="#5A5A5B" transform="translate(1520,1008)"/>
<path d="M0 0 C2.61724095 2.36797991 4.32861729 4.89600354 6 8 C6 8.66 6 9.32 6 10 C3 9 3 9 1.3125 6.6875 C0 4 0 4 0 0 Z " fill="#5B5A5B" transform="translate(1505,982)"/>
<path d="M0 0 C2.61724095 2.36797991 4.32861729 4.89600354 6 8 C6 8.66 6 9.32 6 10 C3 9 3 9 1.3125 6.6875 C0 4 0 4 0 0 Z " fill="#59595A" transform="translate(1479,937)"/>
<path d="M0 0 C2.61724095 2.36797991 4.32861729 4.89600354 6 8 C6 8.66 6 9.32 6 10 C3 9 3 9 1.3125 6.6875 C0 4 0 4 0 0 Z " fill="#5A5A5B" transform="translate(1464,911)"/>
<path d="M0 0 C2.61724095 2.36797991 4.32861729 4.89600354 6 8 C6 8.66 6 9.32 6 10 C3 9 3 9 1.3125 6.6875 C0 4 0 4 0 0 Z " fill="#5C5B5C" transform="translate(1449,885)"/>
<path d="M0 0 C2.61724095 2.36797991 4.32861729 4.89600354 6 8 C6 8.66 6 9.32 6 10 C3 9 3 9 1.3125 6.6875 C0 4 0 4 0 0 Z " fill="#59595A" transform="translate(1423,840)"/>
<path d="M0 0 C2.61724095 2.36797991 4.32861729 4.89600354 6 8 C6 8.66 6 9.32 6 10 C3 9 3 9 1.3125 6.6875 C0 4 0 4 0 0 Z " fill="#5A5A5B" transform="translate(1408,814)"/>
<path d="M0 0 C2.61724095 2.36797991 4.32861729 4.89600354 6 8 C6 8.66 6 9.32 6 10 C3 9 3 9 1.3125 6.6875 C0 4 0 4 0 0 Z " fill="#5C5B5C" transform="translate(1393,788)"/>
<path d="M0 0 C2.61724095 2.36797991 4.32861729 4.89600354 6 8 C6 8.66 6 9.32 6 10 C3 9 3 9 1.3125 6.6875 C0 4 0 4 0 0 Z " fill="#59595A" transform="translate(1367,743)"/>
<path d="M0 0 C2.61724095 2.36797991 4.32861729 4.89600354 6 8 C6 8.66 6 9.32 6 10 C3 9 3 9 1.3125 6.6875 C0 4 0 4 0 0 Z " fill="#5A5A5B" transform="translate(1352,717)"/>
<path d="M0 0 C0.6875 1.6875 0.6875 1.6875 1 4 C-0.25 6.6875 -0.25 6.6875 -2 9 C-2.99 9.33 -3.98 9.66 -5 10 C-3.66511872 6.40608886 -2.03977277 3.24509304 0 0 Z " fill="#5B5B5B" transform="translate(738,1709)"/>
<path d="M0 0 C0.6875 1.6875 0.6875 1.6875 1 4 C-0.25 6.6875 -0.25 6.6875 -2 9 C-2.99 9.33 -3.98 9.66 -5 10 C-3.66511872 6.40608886 -2.03977277 3.24509304 0 0 Z " fill="#5A5A5B" transform="translate(779,1638)"/>
<path d="M0 0 C0.6875 1.6875 0.6875 1.6875 1 4 C-0.25 6.6875 -0.25 6.6875 -2 9 C-2.99 9.33 -3.98 9.66 -5 10 C-3.66511872 6.40608886 -2.03977277 3.24509304 0 0 Z " fill="#5B5B5B" transform="translate(794,1612)"/>
<path d="M0 0 C0.6875 1.6875 0.6875 1.6875 1 4 C-0.25 6.6875 -0.25 6.6875 -2 9 C-2.99 9.33 -3.98 9.66 -5 10 C-3.66511872 6.40608886 -2.03977277 3.24509304 0 0 Z " fill="#5A595A" transform="translate(820,1567)"/>
<path d="M0 0 C0.6875 1.6875 0.6875 1.6875 1 4 C-0.25 6.6875 -0.25 6.6875 -2 9 C-2.99 9.33 -3.98 9.66 -5 10 C-3.66511872 6.40608886 -2.03977277 3.24509304 0 0 Z " fill="#5A5A5B" transform="translate(835,1541)"/>
<path d="M0 0 C0.6875 1.6875 0.6875 1.6875 1 4 C-0.25 6.6875 -0.25 6.6875 -2 9 C-2.99 9.33 -3.98 9.66 -5 10 C-3.66511872 6.40608886 -2.03977277 3.24509304 0 0 Z " fill="#5B5B5B" transform="translate(850,1515)"/>
<path d="M0 0 C0.6875 1.6875 0.6875 1.6875 1 4 C-0.25 6.6875 -0.25 6.6875 -2 9 C-2.99 9.33 -3.98 9.66 -5 10 C-3.66511872 6.40608886 -2.03977277 3.24509304 0 0 Z " fill="#5A595A" transform="translate(876,1470)"/>
<path d="M0 0 C0.6875 1.6875 0.6875 1.6875 1 4 C-0.25 6.6875 -0.25 6.6875 -2 9 C-2.99 9.33 -3.98 9.66 -5 10 C-3.66511872 6.40608886 -2.03977277 3.24509304 0 0 Z " fill="#5A5A5B" transform="translate(891,1444)"/>
<path d="M0 0 C0.6875 1.6875 0.6875 1.6875 1 4 C-0.25 6.6875 -0.25 6.6875 -2 9 C-2.99 9.33 -3.98 9.66 -5 10 C-3.66511872 6.40608886 -2.03977277 3.24509304 0 0 Z " fill="#5B5B5B" transform="translate(906,1418)"/>
<path d="M0 0 C0.6875 1.6875 0.6875 1.6875 1 4 C-0.25 6.6875 -0.25 6.6875 -2 9 C-2.99 9.33 -3.98 9.66 -5 10 C-3.66511872 6.40608886 -2.03977277 3.24509304 0 0 Z " fill="#5A595A" transform="translate(932,1373)"/>
<path d="M0 0 C0.6875 1.6875 0.6875 1.6875 1 4 C-0.25 6.6875 -0.25 6.6875 -2 9 C-2.99 9.33 -3.98 9.66 -5 10 C-3.66511872 6.40608886 -2.03977277 3.24509304 0 0 Z " fill="#5A5A5B" transform="translate(947,1347)"/>
<path d="M0 0 C0.6875 1.6875 0.6875 1.6875 1 4 C-0.25 6.6875 -0.25 6.6875 -2 9 C-2.99 9.33 -3.98 9.66 -5 10 C-3.66511872 6.40608886 -2.03977277 3.24509304 0 0 Z " fill="#5B5B5B" transform="translate(962,1321)"/>
<path d="M0 0 C0.6875 1.6875 0.6875 1.6875 1 4 C-0.25 6.6875 -0.25 6.6875 -2 9 C-2.99 9.33 -3.98 9.66 -5 10 C-3.66511872 6.40608886 -2.03977277 3.24509304 0 0 Z " fill="#5A595A" transform="translate(988,1276)"/>
<path d="M0 0 C0.6875 1.6875 0.6875 1.6875 1 4 C-0.25 6.6875 -0.25 6.6875 -2 9 C-2.99 9.33 -3.98 9.66 -5 10 C-3.66511872 6.40608886 -2.03977277 3.24509304 0 0 Z " fill="#5A5A5B" transform="translate(1003,1250)"/>
<path d="M0 0 C0.6875 1.6875 0.6875 1.6875 1 4 C-0.25 6.6875 -0.25 6.6875 -2 9 C-2.99 9.33 -3.98 9.66 -5 10 C-3.66511872 6.40608886 -2.03977277 3.24509304 0 0 Z " fill="#5B5B5B" transform="translate(1018,1224)"/>
<path d="M0 0 C0.6875 1.6875 0.6875 1.6875 1 4 C-0.25 6.6875 -0.25 6.6875 -2 9 C-2.99 9.33 -3.98 9.66 -5 10 C-3.66511872 6.40608886 -2.03977277 3.24509304 0 0 Z " fill="#5A595A" transform="translate(1044,1179)"/>
<path d="M0 0 C0.6875 1.6875 0.6875 1.6875 1 4 C-0.25 6.6875 -0.25 6.6875 -2 9 C-2.99 9.33 -3.98 9.66 -5 10 C-3.66511872 6.40608886 -2.03977277 3.24509304 0 0 Z " fill="#5A5A5B" transform="translate(1059,1153)"/>
<path d="M0 0 C0.6875 1.6875 0.6875 1.6875 1 4 C-0.25 6.6875 -0.25 6.6875 -2 9 C-2.99 9.33 -3.98 9.66 -5 10 C-3.66511872 6.40608886 -2.03977277 3.24509304 0 0 Z " fill="#5C5B5C" transform="translate(1074,1127)"/>
<path d="M0 0 C0.6875 1.6875 0.6875 1.6875 1 4 C-0.25 6.6875 -0.25 6.6875 -2 9 C-2.99 9.33 -3.98 9.66 -5 10 C-3.66511872 6.40608886 -2.03977277 3.24509304 0 0 Z " fill="#5A595A" transform="translate(1100,1082)"/>
<path d="M0 0 C0.6875 1.6875 0.6875 1.6875 1 4 C-0.25 6.6875 -0.25 6.6875 -2 9 C-2.99 9.33 -3.98 9.66 -5 10 C-3.66511872 6.40608886 -2.03977277 3.24509304 0 0 Z " fill="#5A5A5B" transform="translate(1115,1056)"/>
<path d="M0 0 C0.6875 1.6875 0.6875 1.6875 1 4 C-0.25 6.6875 -0.25 6.6875 -2 9 C-2.99 9.33 -3.98 9.66 -5 10 C-3.66511872 6.40608886 -2.03977277 3.24509304 0 0 Z " fill="#5C5B5C" transform="translate(1130,1030)"/>
<path d="M0 0 C0.6875 1.6875 0.6875 1.6875 1 4 C-0.25 6.6875 -0.25 6.6875 -2 9 C-2.99 9.33 -3.98 9.66 -5 10 C-3.66511872 6.40608886 -2.03977277 3.24509304 0 0 Z " fill="#5A595A" transform="translate(1156,985)"/>
<path d="M0 0 C0.6875 1.6875 0.6875 1.6875 1 4 C-0.25 6.6875 -0.25 6.6875 -2 9 C-2.99 9.33 -3.98 9.66 -5 10 C-3.66511872 6.40608886 -2.03977277 3.24509304 0 0 Z " fill="#5A5A5B" transform="translate(1171,959)"/>
<path d="M0 0 C0.6875 1.6875 0.6875 1.6875 1 4 C-0.25 6.6875 -0.25 6.6875 -2 9 C-2.99 9.33 -3.98 9.66 -5 10 C-3.66511872 6.40608886 -2.03977277 3.24509304 0 0 Z " fill="#5A5A5B" transform="translate(1212,888)"/>
<path d="M0 0 C0.6875 1.6875 0.6875 1.6875 1 4 C-0.25 6.6875 -0.25 6.6875 -2 9 C-2.99 9.33 -3.98 9.66 -5 10 C-3.66511872 6.40608886 -2.03977277 3.24509304 0 0 Z " fill="#5B5B5B" transform="translate(1227,862)"/>
<path d="M0 0 C0.6875 1.6875 0.6875 1.6875 1 4 C-0.25 6.6875 -0.25 6.6875 -2 9 C-2.99 9.33 -3.98 9.66 -5 10 C-3.66511872 6.40608886 -2.03977277 3.24509304 0 0 Z " fill="#5A5A5B" transform="translate(1268,791)"/>
<path d="M0 0 C0.6875 1.6875 0.6875 1.6875 1 4 C-0.25 6.6875 -0.25 6.6875 -2 9 C-2.99 9.33 -3.98 9.66 -5 10 C-3.66511872 6.40608886 -2.03977277 3.24509304 0 0 Z " fill="#5B5B5B" transform="translate(1283,765)"/>
<path d="M0 0 C0.6875 1.6875 0.6875 1.6875 1 4 C-0.25 6.6875 -0.25 6.6875 -2 9 C-2.99 9.33 -3.98 9.66 -5 10 C-3.66511872 6.40608886 -2.03977277 3.24509304 0 0 Z " fill="#5A595A" transform="translate(1309,720)"/>
<path d="M0 0 C0.6875 1.6875 0.6875 1.6875 1 4 C-0.25 6.6875 -0.25 6.6875 -2 9 C-2.99 9.33 -3.98 9.66 -5 10 C-3.66511872 6.40608886 -2.03977277 3.24509304 0 0 Z " fill="#5A5A5B" transform="translate(1324,694)"/>
<path d="M0 0 C0.6875 1.6875 0.6875 1.6875 1 4 C-0.3125 6.75 -0.3125 6.75 -2 9 C-2.66 9 -3.32 9 -4 9 C-2.94124926 5.59687262 -1.99097846 2.98646769 0 0 Z " fill="#5E5D5E" transform="translate(732,1719)"/>
<path d="M0 0 C0.6875 1.6875 0.6875 1.6875 1 4 C-0.3125 6.75 -0.3125 6.75 -2 9 C-2.66 9 -3.32 9 -4 9 C-2.94124926 5.59687262 -1.99097846 2.98646769 0 0 Z " fill="#5D5C5D" transform="translate(773,1648)"/>
<path d="M0 0 C0.6875 1.6875 0.6875 1.6875 1 4 C-0.3125 6.75 -0.3125 6.75 -2 9 C-2.66 9 -3.32 9 -4 9 C-2.94124926 5.59687262 -1.99097846 2.98646769 0 0 Z " fill="#5E5D5E" transform="translate(788,1622)"/>
<path d="M0 0 C0.6875 1.6875 0.6875 1.6875 1 4 C-0.3125 6.75 -0.3125 6.75 -2 9 C-2.66 9 -3.32 9 -4 9 C-2.94124926 5.59687262 -1.99097846 2.98646769 0 0 Z " fill="#5D5D5E" transform="translate(829,1551)"/>
<path d="M0 0 C0.6875 1.6875 0.6875 1.6875 1 4 C-0.3125 6.75 -0.3125 6.75 -2 9 C-2.66 9 -3.32 9 -4 9 C-2.94124926 5.59687262 -1.99097846 2.98646769 0 0 Z " fill="#5F5E5F" transform="translate(844,1525)"/>
<path d="M0 0 C0.6875 1.6875 0.6875 1.6875 1 4 C-0.3125 6.75 -0.3125 6.75 -2 9 C-2.66 9 -3.32 9 -4 9 C-2.94124926 5.59687262 -1.99097846 2.98646769 0 0 Z " fill="#5D5D5E" transform="translate(885,1454)"/>
<path d="M0 0 C0.6875 1.6875 0.6875 1.6875 1 4 C-0.3125 6.75 -0.3125 6.75 -2 9 C-2.66 9 -3.32 9 -4 9 C-2.94124926 5.59687262 -1.99097846 2.98646769 0 0 Z " fill="#5F5E5F" transform="translate(900,1428)"/>
<path d="M0 0 C0.6875 1.6875 0.6875 1.6875 1 4 C-0.3125 6.75 -0.3125 6.75 -2 9 C-2.66 9 -3.32 9 -4 9 C-2.94124926 5.59687262 -1.99097846 2.98646769 0 0 Z " fill="#5E5D5E" transform="translate(941,1357)"/>
<path d="M0 0 C0.6875 1.6875 0.6875 1.6875 1 4 C-0.3125 6.75 -0.3125 6.75 -2 9 C-2.66 9 -3.32 9 -4 9 C-2.94124926 5.59687262 -1.99097846 2.98646769 0 0 Z " fill="#5F5F60" transform="translate(956,1331)"/>
<path d="M0 0 C0.6875 1.6875 0.6875 1.6875 1 4 C-0.3125 6.75 -0.3125 6.75 -2 9 C-2.66 9 -3.32 9 -4 9 C-2.94124926 5.59687262 -1.99097846 2.98646769 0 0 Z " fill="#5D5C5D" transform="translate(982,1286)"/>
<path d="M0 0 C0.6875 1.6875 0.6875 1.6875 1 4 C-0.3125 6.75 -0.3125 6.75 -2 9 C-2.66 9 -3.32 9 -4 9 C-2.94124926 5.59687262 -1.99097846 2.98646769 0 0 Z " fill="#5E5D5E" transform="translate(997,1260)"/>
<path d="M0 0 C0.6875 1.6875 0.6875 1.6875 1 4 C-0.3125 6.75 -0.3125 6.75 -2 9 C-2.66 9 -3.32 9 -4 9 C-2.94124926 5.59687262 -1.99097846 2.98646769 0 0 Z " fill="#5F5F60" transform="translate(1012,1234)"/>
<path d="M0 0 C0.6875 1.6875 0.6875 1.6875 1 4 C-0.3125 6.75 -0.3125 6.75 -2 9 C-2.66 9 -3.32 9 -4 9 C-2.94124926 5.59687262 -1.99097846 2.98646769 0 0 Z " fill="#5D5C5D" transform="translate(1038,1189)"/>
<path d="M0 0 C0.6875 1.6875 0.6875 1.6875 1 4 C-0.3125 6.75 -0.3125 6.75 -2 9 C-2.66 9 -3.32 9 -4 9 C-2.94124926 5.59687262 -1.99097846 2.98646769 0 0 Z " fill="#5E5D5E" transform="translate(1053,1163)"/>
<path d="M0 0 C0.6875 1.6875 0.6875 1.6875 1 4 C-0.3125 6.75 -0.3125 6.75 -2 9 C-2.66 9 -3.32 9 -4 9 C-2.94124926 5.59687262 -1.99097846 2.98646769 0 0 Z " fill="#5F5F60" transform="translate(1068,1137)"/>
<path d="M0 0 C0.6875 1.6875 0.6875 1.6875 1 4 C-0.3125 6.75 -0.3125 6.75 -2 9 C-2.66 9 -3.32 9 -4 9 C-2.94124926 5.59687262 -1.99097846 2.98646769 0 0 Z " fill="#5D5C5D" transform="translate(1094,1092)"/>
<path d="M0 0 C0.6875 1.6875 0.6875 1.6875 1 4 C-0.3125 6.75 -0.3125 6.75 -2 9 C-2.66 9 -3.32 9 -4 9 C-2.94124926 5.59687262 -1.99097846 2.98646769 0 0 Z " fill="#5E5D5E" transform="translate(1109,1066)"/>
<path d="M0 0 C0.6875 1.6875 0.6875 1.6875 1 4 C-0.3125 6.75 -0.3125 6.75 -2 9 C-2.66 9 -3.32 9 -4 9 C-2.94124926 5.59687262 -1.99097846 2.98646769 0 0 Z " fill="#5F5F60" transform="translate(1124,1040)"/>
<path d="M0 0 C0.6875 1.6875 0.6875 1.6875 1 4 C-0.3125 6.75 -0.3125 6.75 -2 9 C-2.66 9 -3.32 9 -4 9 C-2.94124926 5.59687262 -1.99097846 2.98646769 0 0 Z " fill="#5D5C5D" transform="translate(1150,995)"/>
<path d="M0 0 C0.6875 1.6875 0.6875 1.6875 1 4 C-0.3125 6.75 -0.3125 6.75 -2 9 C-2.66 9 -3.32 9 -4 9 C-2.94124926 5.59687262 -1.99097846 2.98646769 0 0 Z " fill="#5E5D5E" transform="translate(1165,969)"/>
<path d="M0 0 C0.6875 1.6875 0.6875 1.6875 1 4 C-0.3125 6.75 -0.3125 6.75 -2 9 C-2.66 9 -3.32 9 -4 9 C-2.94124926 5.59687262 -1.99097846 2.98646769 0 0 Z " fill="#5D5C5D" transform="translate(1206,898)"/>
<path d="M0 0 C0.6875 1.6875 0.6875 1.6875 1 4 C-0.3125 6.75 -0.3125 6.75 -2 9 C-2.66 9 -3.32 9 -4 9 C-2.94124926 5.59687262 -1.99097846 2.98646769 0 0 Z " fill="#5E5D5E" transform="translate(1221,872)"/>
<path d="M0 0 C0.6875 1.6875 0.6875 1.6875 1 4 C-0.3125 6.75 -0.3125 6.75 -2 9 C-2.66 9 -3.32 9 -4 9 C-2.94124926 5.59687262 -1.99097846 2.98646769 0 0 Z " fill="#5D5C5D" transform="translate(1262,801)"/>
<path d="M0 0 C0.6875 1.6875 0.6875 1.6875 1 4 C-0.3125 6.75 -0.3125 6.75 -2 9 C-2.66 9 -3.32 9 -4 9 C-2.94124926 5.59687262 -1.99097846 2.98646769 0 0 Z " fill="#5E5D5E" transform="translate(1277,775)"/>
<path d="M0 0 C0.6875 1.6875 0.6875 1.6875 1 4 C-0.3125 6.75 -0.3125 6.75 -2 9 C-2.66 9 -3.32 9 -4 9 C-2.94124926 5.59687262 -1.99097846 2.98646769 0 0 Z " fill="#5D5D5E" transform="translate(1318,704)"/>
</svg>
