<svg xmlns="http://www.w3.org/2000/svg" version="1.1" xmlns:xlink="http://www.w3.org/1999/xlink" xmlns:svgjs="http://svgjs.dev/svgjs" width="2560" height="1440" preserveAspectRatio="none" viewBox="0 0 2560 1440"><g mask="url(&quot;#SvgjsMask1024&quot;)" fill="none"><rect width="2560" height="1440" x="0" y="0" fill="rgba(157, 17, 104, 1)"></rect><path d="M141 1440L1581 0L2283 0L843 1440z" fill="url(&quot;#SvgjsLinearGradient1025&quot;)"></path><path d="M944.8000000000001 1440L2384.8 0L2681.8 0L1241.8000000000002 1440z" fill="url(&quot;#SvgjsLinearGradient1025&quot;)"></path><path d="M2527 1440L1087 0L497.5 0L1937.5 1440z" fill="url(&quot;#SvgjsLinearGradient1026&quot;)"></path><path d="M1558.1999999999998 1440L118.19999999999982 0L-16.800000000000182 0L1423.1999999999998 1440z" fill="url(&quot;#SvgjsLinearGradient1026&quot;)"></path><path d="M1731.5286525241845 1440L2560 611.5286525241845L2560 1440z" fill="url(&quot;#SvgjsLinearGradient1025&quot;)"></path><path d="M0 1440L828.4713474758155 1440L 0 611.5286525241845z" fill="url(&quot;#SvgjsLinearGradient1026&quot;)"></path></g><defs><mask id="SvgjsMask1024"><rect width="2560" height="1440" fill="#ffffff"></rect></mask><linearGradient x1="0%" y1="100%" x2="100%" y2="0%" id="SvgjsLinearGradient1025"><stop stop-color="rgba(193, 11, 153, 1)" offset="0"></stop><stop stop-opacity="0" stop-color="rgba(193, 11, 153, 1)" offset="0.66"></stop></linearGradient><linearGradient x1="100%" y1="100%" x2="0%" y2="0%" id="SvgjsLinearGradient1026"><stop stop-color="rgba(193, 11, 153, 1)" offset="0"></stop><stop stop-opacity="0" stop-color="rgba(193, 11, 153, 1)" offset="0.66"></stop></linearGradient></defs></svg>