<?xml version="1.0" encoding="UTF-8"?>
<svg version="1.1" xmlns="http://www.w3.org/2000/svg" width="3240" height="1595">
<path d="M0 0 C51.39532486 -0.1209091 51.39532486 -0.1209091 73.00976562 -0.14648438 C87.90636307 -0.16425282 102.80290943 -0.18508815 117.69946289 -0.22631836 C128.55079699 -0.25633787 139.40208945 -0.27560266 150.25346392 -0.28226548 C155.99248741 -0.28615657 161.73139186 -0.29522069 167.47037697 -0.31719017 C172.88677966 -0.33775416 178.30301578 -0.34379411 183.71945381 -0.33932304 C185.69331522 -0.34013943 187.66718298 -0.3459852 189.64101028 -0.35761642 C232.05596047 -0.59501515 269.42426264 14.47280646 299.75 44.375 C328.73823659 73.81820891 342.32911992 111.52795611 342.30078125 152.48046875 C342.30469046 153.90945047 342.30902946 155.33843106 342.31376648 156.76741028 C342.32114735 159.73796379 342.32099846 162.70839831 342.31567383 165.67895508 C342.31104874 168.67585279 342.31794907 171.67234411 342.33618164 174.66918945 C342.54783811 209.78375653 340.0798161 246.13828633 314.875 273.2890625 C313.67884828 274.46109826 312.4622688 275.6131606 311.21484375 276.73046875 C309.76954198 277.94797501 309.76954198 277.94797501 310 280 C311.57716239 281.25033597 313.21501322 282.42442042 314.875 283.5625 C320.65265909 287.66397045 325.85026929 292.14306334 331 297 C332.03253906 297.93585938 332.03253906 297.93585938 333.0859375 298.890625 C358.83798483 323.11587111 365.00862974 359.41317357 366.06585312 393.09819794 C366.30392438 402.92691157 366.28951386 412.75916808 366.26074219 422.59008789 C366.24929893 426.5372968 366.25616663 430.48423749 366.26761532 434.43143749 C366.39261938 485.09231856 358.19633507 527.64667336 321.5 564.875 C286.71241918 599.16189 243.9671276 607.7019906 196.74742615 607.46426249 C192.3599606 607.44671544 187.97251282 607.45285308 183.58502197 607.45587158 C176.01376048 607.45795203 168.44263865 607.44558162 160.87141228 607.42292023 C149.92520137 607.39017881 138.97905685 607.37997079 128.03280229 607.37496826 C110.26605209 607.36625 92.49937604 607.33972942 74.73266602 607.30175781 C57.49113329 607.26494733 40.24962082 607.23668001 23.00805664 607.21972656 C21.40941165 607.21815022 21.40941165 607.21815022 19.77847081 607.21654204 C14.43095521 607.21132125 9.08343948 607.20626657 3.73592365 607.20129442 C-40.50943555 607.1599406 -84.75471392 607.08958772 -129 607 C-130.52683208 603.94633585 -130.13480052 600.76365747 -130.12304783 597.41374016 C-130.12420167 596.61789684 -130.12535552 595.82205352 -130.12654433 595.00209373 C-130.12921363 592.30686647 -130.12468625 589.61169768 -130.12025452 586.91647339 C-130.12069015 584.97609096 -130.12156492 583.0357086 -130.12284368 581.09532654 C-130.12509011 575.7410981 -130.12106535 570.38688949 -130.11606562 565.03266358 C-130.11176341 559.26713704 -130.11320738 553.50161169 -130.1139679 547.73608398 C-130.11449328 537.73953866 -130.111345 527.74299984 -130.10573006 517.74645615 C-130.09761697 503.29297553 -130.09500003 488.83949808 -130.09374207 474.38601543 C-130.09155124 450.93849418 -130.08489891 427.4909764 -130.07543945 404.04345703 C-130.06625886 381.26090513 -130.05917337 358.47835416 -130.05493164 335.69580078 C-130.05480011 334.99385755 -130.05466859 334.29191433 -130.05453308 333.5687001 C-130.05321459 326.51966138 -130.05193877 319.47062265 -130.05069422 312.42158392 C-130.04815783 298.06117675 -130.04533658 283.70076963 -130.04234314 269.34036255 C-130.04206841 268.02139103 -130.04179369 266.70241952 -130.04151063 265.34347917 C-130.03233594 221.89565114 -130.01599246 178.44782607 -130 135 C-99.64 135 -69.28 135 -38 135 C-37.97797252 183.24831697 -37.95950146 231.49662922 -37.94893467 279.74494978 C-37.9476839 285.43543528 -37.94638958 291.12592077 -37.94506836 296.81640625 C-37.94480605 297.94932463 -37.94454374 299.08224301 -37.94427348 300.24949224 C-37.93991697 318.61631116 -37.93202952 336.98312697 -37.9228472 355.34994404 C-37.91351014 374.18274017 -37.90794428 393.01553466 -37.90591151 411.848333 C-37.90453639 423.47800556 -37.9001864 435.10766931 -37.89208353 446.73733915 C-37.88681543 454.7020098 -37.88519585 462.66667586 -37.88649862 470.63134812 C-37.8871419 475.23300743 -37.88612563 479.83465131 -37.88079453 484.43630791 C-37.87595627 488.64304886 -37.87566419 492.84976389 -37.87910111 497.05650599 C-37.87952637 498.58412284 -37.87823423 500.11174126 -37.87511682 501.63935499 C-37.87114496 503.70457602 -37.87324159 505.76970155 -37.87695217 507.83492088 C-37.87657245 508.98547348 -37.87619273 510.13602608 -37.8758015 511.32144392 C-38 514 -38 514 -39 516 C-5.4788047 515.96396373 28.04228099 515.90696586 61.56338701 515.82207905 C65.5259816 515.81206227 69.48857659 515.80221803 73.45117188 515.79248047 C74.24001244 515.7905391 75.02885301 515.78859772 75.84159784 515.78659752 C88.59382571 515.75562458 101.3460356 515.73861004 114.09829397 515.72680578 C127.19525638 515.71436978 140.29212487 515.68681331 153.38902795 515.64538693 C161.46254454 515.62032142 169.53590525 515.60687762 177.60946129 515.60857043 C183.81311094 515.60860386 190.01653052 515.58754195 196.22010994 515.55883217 C198.75560595 515.55034605 201.29113519 515.54857441 203.82663918 515.55419731 C225.74402016 515.596311 242.18073414 513.11731634 259 498 C259.33 497.34 259.66 496.68 260 496 C260.66 496 261.32 496 262 496 C262.40605469 495.14148438 262.40605469 495.14148438 262.8203125 494.265625 C264 492 264 492 265.3671875 489.984375 C274.12722836 477.00317456 274.60652788 462.24659412 274.49609375 447.140625 C274.49624928 445.37619975 274.49774722 443.61177418 274.50050354 441.84735107 C274.50187564 438.17981551 274.48952657 434.5126767 274.46655273 430.84521484 C274.43808718 426.1765577 274.44094441 421.50855371 274.45364285 416.83984756 C274.46063905 413.2072606 274.45276741 409.57482121 274.44038582 405.94225311 C274.43591546 404.22170327 274.43549521 402.50113735 274.43945122 400.78058624 C274.46176553 382.554797 271.43364302 366.90086663 258.3515625 353.25 C242.46838978 338.05281148 226.2536786 335.54931188 205.10668945 335.56762695 C202.99671356 335.55859998 200.88674289 335.54827048 198.77677917 335.53674316 C193.07511905 335.50925702 187.37355867 335.49990003 181.67184091 335.49388909 C175.70340315 335.48448358 169.73503926 335.45827843 163.76664734 335.43388367 C152.476418 335.39027485 141.18620305 335.36169336 129.89591521 335.33856028 C117.03733731 335.3114785 104.17883391 335.26756881 91.32030928 335.22227156 C64.88023581 335.12950569 38.44016951 335.06000916 12 335 C12 304.97 12 274.94 12 244 C32.22152344 243.96132813 32.22152344 243.96132813 52.8515625 243.921875 C61.40105612 243.89670341 69.95052734 243.87053039 78.5 243.83984375 C92.06477697 243.79134142 105.6294794 243.74688289 119.19433594 243.72900391 C129.07481404 243.71596222 138.95514009 243.68893341 148.83553255 243.64538693 C154.06298301 243.62282873 159.29024633 243.60708593 164.51774979 243.60811615 C169.44754632 243.6088661 174.37693002 243.59078154 179.30661964 243.55883217 C181.10678408 243.55037925 182.90699506 243.54855156 184.70717049 243.55419731 C203.79875556 243.60605375 220.57573071 239.36560732 235 226 C249.97798696 209.93861435 251.18722194 192.85109187 251.18530273 171.97973633 C251.18748069 169.33593427 251.20566409 166.69255627 251.22460938 164.04882812 C251.30011648 141.81979705 248.36579274 124.37095011 232.8125 107.3125 C220.53523674 95.70490565 205.25717593 90.86351371 188.67933655 90.84178162 C187.86889576 90.83684364 187.05845497 90.83190566 186.22345537 90.82681805 C183.52275149 90.81152727 180.82207123 90.8031054 178.12133789 90.79467773 C176.17944127 90.78509258 174.23754671 90.77508213 172.2956543 90.76467896 C167.03385313 90.73769287 161.77204306 90.71664928 156.51021123 90.69667697 C151.00755908 90.67477851 145.5049342 90.64740873 140.00230408 90.62062073 C129.58671615 90.570746 119.17111305 90.52578783 108.75549549 90.48259836 C94.67773711 90.42393908 80.60001464 90.35768028 66.52228832 90.29184818 C44.34821642 90.18835516 22.17411362 90.0950117 0 90 C0 60.3 0 30.6 0 0 Z " fill="#FFFFFF" transform="translate(1827,494)"/>
<path d="M0 0 C1.64956073 -0.00128164 1.64956073 -0.00128164 3.33244592 -0.00258917 C6.98811184 -0.00422586 10.64373106 0.00124755 14.2993927 0.00672913 C16.93152468 0.00701141 19.56365388 0.0068964 22.19578552 0.00628662 C27.84759179 0.00576422 33.49938645 0.00888126 39.1511898 0.01452446 C47.32258148 0.02267807 55.49396757 0.02525863 63.66536287 0.02651245 C76.92537469 0.02869692 90.18538033 0.03534056 103.44538879 0.04481506 C116.32038848 0.05400486 129.19538649 0.06107802 142.07038879 0.06532288 C143.26234559 0.06571696 143.26234559 0.06571696 144.47838231 0.06611901 C148.46515235 0.06742412 152.4519224 0.06868781 156.43869245 0.06993091 C189.4727497 0.08028467 222.50679546 0.0987128 255.54084778 0.12025452 C255.54084778 30.15025452 255.54084778 60.18025452 255.54084778 91.12025452 C247.60110901 91.13483704 239.66137024 91.14941956 231.48103333 91.16444397 C206.05613322 91.21323593 180.6312897 91.27665462 155.20644705 91.3492408 C151.25500737 91.36050851 147.30356734 91.37164704 143.35212708 91.38270569 C142.56549019 91.38490937 141.77885331 91.38711306 140.96837894 91.38938352 C128.24322982 91.42472389 115.51808077 91.44960641 102.79290082 91.47060154 C89.72873516 91.49238959 76.664633 91.52546849 63.60052139 91.56895608 C55.54391251 91.5954211 47.4873827 91.61315435 39.43073253 91.61960056 C33.24542462 91.62549457 27.06026123 91.64712295 20.87501335 91.67453003 C18.34309385 91.68330818 15.81115087 91.6870333 13.27921677 91.68526268 C9.81464091 91.68360514 6.35060941 91.70035114 2.8861084 91.7215271 C1.8909393 91.71667952 0.89577021 91.71183195 -0.12955552 91.70683748 C-11.73028815 91.82335443 -23.1925118 94.74739985 -31.53337097 103.22962952 C-38.63715183 111.86735048 -39.9683442 119.57200463 -39.89665222 130.49525452 C-39.91663269 131.56775452 -39.93661316 132.64025452 -39.9571991 133.74525452 C-39.95078136 144.29600963 -37.15995047 152.3566263 -29.88102722 160.07337952 C-22.34575581 166.44189923 -14.10350613 169.23563338 -4.4176178 169.26501465 C-3.3534837 169.27030492 -3.3534837 169.27030492 -2.26785195 169.27570206 C0.10995693 169.28637801 2.48772571 169.29006831 4.86555481 169.2938385 C6.57090931 169.30014529 8.27626216 169.30691123 9.98161316 169.31410217 C13.65709719 169.32877299 17.33257486 169.34049809 21.00807571 169.35004997 C26.83542583 169.36553068 32.66272208 169.38948525 38.49003601 169.41494751 C55.06243979 169.48605744 71.63487545 169.54568114 88.20735168 169.59706116 C97.35831583 169.62550739 106.50922734 169.66097264 115.6601361 169.70371491 C121.43556573 169.7302746 127.21093585 169.74831062 132.98641419 169.75975215 C136.6081236 169.76898112 140.22976193 169.78639073 143.85142899 169.80593109 C145.51124433 169.81330636 147.17107806 169.81748146 148.83090973 169.81792641 C163.68325654 169.82511236 178.80190588 170.39385535 193.10334778 174.74525452 C193.9733844 175.00322815 194.84342102 175.26120178 195.73982239 175.5269928 C209.12969424 179.66819028 221.24936303 185.80367332 232.54084778 194.12025452 C233.35424622 194.71064514 234.16764465 195.30103577 235.00569153 195.90931702 C261.87485962 216.3769167 278.55934318 244.60158841 283.65022278 277.90150452 C284.75962946 286.64784613 284.87793114 295.34444011 284.85652161 304.15248108 C284.85336782 306.85309022 284.87689883 309.55259261 284.9021759 312.25306702 C285.03236051 348.0066414 273.62101885 380.21775981 248.59553528 406.09291077 C233.3680177 421.39284837 214.26028849 433.01564338 193.47834778 438.93275452 C192.79530579 439.12780579 192.11226379 439.32285706 191.40852356 439.52381897 C175.43353426 443.75359014 159.46069737 443.39401836 143.06477356 443.3473053 C140.28441764 443.34562279 137.50406507 443.34697124 134.72370911 443.34819031 C128.76091325 443.34923375 122.79816151 443.34301412 116.83537674 443.33171463 C108.21443492 443.31538866 99.59351421 443.3102444 90.9725586 443.30773865 C76.98212601 443.30337262 62.99171687 443.29009331 49.001297 443.27113342 C35.41926693 443.25274624 21.83724326 443.23860366 8.25520325 443.2301178 C6.99722131 443.22932963 6.99722131 443.22932963 5.7138256 443.22852553 C1.50610643 443.22591526 -2.70161279 443.22338789 -6.90933204 443.22090173 C-41.75929294 443.20020328 -76.60921041 443.16335199 -111.45915222 443.12025452 C-111.45915222 413.09025452 -111.45915222 383.06025452 -111.45915222 352.12025452 C-99.00427063 352.10623596 -99.00427063 352.10623596 -86.29777527 352.0919342 C-59.71132748 352.05920613 -33.12495264 352.00690623 -6.53856425 351.94233356 C-2.40686932 351.93231646 1.72482601 351.92247227 5.85652161 351.91273499 C6.67904587 351.91079361 7.50157013 351.90885224 8.34901937 351.90685204 C21.65616211 351.87585576 34.96328761 351.85885802 48.27045963 351.84706029 C61.93128173 351.83463643 75.59201359 351.80710717 89.25277871 351.76564145 C97.67792585 351.74054136 106.10292326 351.72713468 114.52810832 351.72882494 C120.31054106 351.72885477 126.09282161 351.71417322 131.875195 351.68809023 C135.20829095 351.67348463 138.54081356 351.66739144 141.87397385 351.67445183 C145.49632093 351.68110168 149.11776457 351.66314532 152.74002075 351.63923645 C153.78188123 351.64699687 154.8237417 351.65475729 155.8971737 351.66275287 C166.40103494 351.54046913 175.84310412 348.4466158 183.54084778 341.12025452 C190.15739194 333.87213114 193.01318207 326.31836804 192.97444153 316.59681702 C192.97968338 315.81059967 192.98492523 315.02438232 192.99032593 314.21434021 C192.99670694 312.56222201 192.99546039 310.91005814 192.9868927 309.25794983 C192.97839141 306.75808568 193.00718208 304.26051831 193.03889465 301.76087952 C193.093823 289.55978633 191.64156869 280.36801127 182.96272278 271.16712952 C175.42745136 264.7986098 167.18520169 262.00487565 157.49931335 261.97549438 C156.78989062 261.97196754 156.08046789 261.96844069 155.34954751 261.96480697 C152.97173863 261.95413103 150.59396985 261.95044072 148.21614075 261.94667053 C146.51078625 261.94036375 144.8054334 261.9335978 143.1000824 261.92640686 C139.42459837 261.91173604 135.74912069 261.90001094 132.07361984 261.89045906 C126.24626973 261.87497835 120.41897348 261.85102378 114.59165955 261.82556152 C98.01925577 261.75445159 81.44682011 261.6948279 64.87434387 261.64344788 C55.72337973 261.61500165 46.57246821 261.57953639 37.42155945 261.53679413 C31.64612983 261.51023444 25.87075971 261.49219841 20.09528136 261.48075688 C16.47357195 261.47152792 12.85193363 261.4541183 9.23026657 261.43457794 C7.57045123 261.42720267 5.9106175 261.42302757 4.25078583 261.42258263 C-4.25553115 261.41846705 -12.64326649 261.1377584 -21.10438538 260.21459961 C-21.82762532 260.13572244 -22.55086527 260.05684528 -23.29602158 259.97557789 C-56.06948089 256.05153477 -85.78474901 237.13824136 -106.26774597 211.72181702 C-124.09894731 188.45899926 -131.85259586 161.88361115 -131.77482605 132.83802795 C-131.77167424 130.38737579 -131.79518958 127.93794543 -131.82048035 125.48744202 C-131.96281331 90.10204661 -117.62291184 59.59136981 -92.92399597 34.54994202 C-67.30424899 10.63817817 -34.62412319 -0.10016923 0 0 Z " fill="#FFFFFF" transform="translate(605.4591522216797,657.8797454833984)"/>
<path d="M0 0 C2.53190142 -0.00135115 5.06380258 -0.00329541 7.59570312 -0.00579834 C12.87371836 -0.00872843 18.1516824 -0.00471752 23.4296875 0.00488281 C29.47934752 0.01576161 35.52887259 0.01223392 41.57852936 0.00123 C47.46569826 -0.00903825 53.35281706 -0.00782635 59.23999023 -0.00200653 C61.71476257 -0.00068587 64.18953842 -0.00226124 66.66430664 -0.00696564 C116.81533497 -0.08141152 158.79647365 13.6583116 195.3125 48.828125 C208.74552088 62.86262443 219.67154181 79.50948227 227.5 97.265625 C227.77537598 97.88550293 228.05075195 98.50538086 228.33447266 99.14404297 C236.71339123 118.46252612 239.64583687 139.20514029 239.66113281 160.10668945 C239.66576999 161.59278992 239.67079584 163.07888922 239.67617798 164.56498718 C239.68922338 168.58219751 239.69573229 172.59939118 239.70018864 176.61661935 C239.70313408 179.13667471 239.7072417 181.65672567 239.71169281 184.17677879 C239.72535138 192.09078806 239.73502422 200.0047871 239.7388947 207.91880733 C239.7433618 216.99869414 239.7608537 226.07842939 239.7898953 235.15827018 C239.8116578 242.21178747 239.82160679 249.26526259 239.82293582 256.31881303 C239.82397414 260.51458126 239.82966989 264.71020677 239.84775543 268.9059391 C240.0160978 310.3543852 233.32396545 345.1219355 208.5 379.265625 C207.91992188 380.07386719 207.33984375 380.88210938 206.7421875 381.71484375 C181.95420149 414.45054724 144.85573571 435.85797293 104.5 442.265625 C97.31374977 443.21984124 90.27443079 443.41962061 83.02978516 443.42675781 C81.81053345 443.43172272 80.59128174 443.43668762 79.33508301 443.44180298 C76.01211614 443.45384243 72.68921163 443.46135235 69.36623049 443.46581364 C67.27969763 443.46876324 65.19317003 443.47287156 63.10663986 443.47731781 C56.54829616 443.49097001 49.98996476 443.50064587 43.43160784 443.5045197 C35.91778129 443.50898486 28.40413805 443.52647024 20.89036715 443.5555203 C15.04619672 443.57731281 9.20207717 443.58723335 3.35786664 443.58856082 C-0.11520708 443.58959707 -3.58810804 443.59524637 -7.06113815 443.61338043 C-22.17108632 443.68777437 -36.67422186 443.33012125 -51.5 440.265625 C-52.57683328 440.04653929 -52.57683328 440.04653929 -53.67542076 439.82302761 C-81.55020257 434.1370299 -106.65590288 419.14132782 -127.04296875 399.65527344 C-128.45532996 398.3082292 -129.8836914 396.97802328 -131.3125 395.6484375 C-159.52204007 368.64100851 -175.71182039 329.40199768 -176.77825928 290.62643433 C-176.93752964 282.38515645 -176.92308897 274.14226102 -176.90297651 265.89983249 C-176.89525426 261.73058455 -176.90245955 257.56135405 -176.90713501 253.3921051 C-176.91255608 246.39849225 -176.90549725 239.40497518 -176.89111328 232.41137695 C-176.87478745 224.38205239 -176.88008964 216.35295648 -176.8965925 208.32363743 C-176.91030481 201.36752537 -176.91208012 194.41148123 -176.90427649 187.45536 C-176.8996538 183.32797928 -176.89882288 179.20070524 -176.90888596 175.07333183 C-176.97118802 145.43599882 -174.66560417 118.24555347 -161.5 91.265625 C-161.19191406 90.63027832 -160.88382813 89.99493164 -160.56640625 89.34033203 C-142.47560155 52.5488148 -109.64720621 22.83142908 -70.93603516 9.06689453 C-66.1941846 7.50718783 -61.39487021 6.2001388 -56.5625 4.953125 C-55.6348584 4.71045898 -54.7072168 4.46779297 -53.75146484 4.21777344 C-36.03921359 -0.08625187 -18.11503255 -0.03443564 0 0 Z M-68.92578125 115.2890625 C-79.01503901 126.95524522 -85.58162334 141.68753697 -85.64717102 157.23239136 C-85.65432632 158.40391251 -85.66148163 159.57543365 -85.66885376 160.78245544 C-85.67154266 162.0542012 -85.67423157 163.32594696 -85.67700195 164.63623047 C-85.68327444 166.00030182 -85.68992192 167.36437148 -85.69691467 168.72843933 C-85.71787646 173.19655181 -85.72831451 177.66466429 -85.73828125 182.1328125 C-85.74233273 183.67838686 -85.74644977 185.22396105 -85.75063133 186.76953506 C-85.76967126 194.03854856 -85.78390084 201.30755203 -85.7922433 208.57658565 C-85.80199026 216.92874044 -85.82824796 225.28062843 -85.86874419 233.63268936 C-85.89906601 240.1119898 -85.91372755 246.59121449 -85.91702431 253.07058442 C-85.9193579 256.92874725 -85.92809352 260.78662473 -85.95348549 264.64471054 C-86.10949796 289.65589301 -84.93005603 310.6009464 -67.5 330.265625 C-66.72076172 331.18601562 -66.72076172 331.18601562 -65.92578125 332.125 C-56.22931935 342.77401106 -40.33251949 351.38929415 -25.89460373 352.45858383 C-22.86108338 352.53874301 -19.83292828 352.55871968 -16.79833984 352.55615234 C-15.64923126 352.56286957 -14.50012268 352.56958679 -13.31619263 352.57650757 C-9.53106312 352.59544742 -5.7461114 352.5994101 -1.9609375 352.6015625 C0.68452018 352.60799432 3.32997715 352.61472297 5.97543335 352.62173462 C11.51830187 352.6344988 17.06112267 352.63750247 22.60400391 352.63623047 C28.97741202 352.63503176 35.35048002 352.65608818 41.72380221 352.6877178 C47.22394043 352.71402483 52.72396862 352.72459169 58.22416914 352.72331965 C61.49651488 352.72281397 64.76849386 352.73016615 68.04079056 352.74967575 C87.15831311 353.0483102 87.15831311 353.0483102 105.5 348.265625 C106.53693497 347.84520432 106.53693497 347.84520432 107.59481812 347.41629028 C124.70557577 339.74321588 137.58150526 325.57980995 144.76511288 308.3735075 C148.14427215 298.68103844 148.94057724 289.19863707 148.90405273 279.00854492 C148.90977295 277.63358512 148.9167435 276.25863005 148.92485046 274.88368225 C148.94261753 271.18921077 148.94164463 267.49497891 148.93590808 263.80047774 C148.93279135 260.69714167 148.93893618 257.59385 148.94494683 254.4905203 C148.95893723 247.15859941 148.9574775 239.82679517 148.94604492 232.49487305 C148.93457642 224.9745405 148.94863047 217.45456512 148.9754414 209.93427962 C148.99772019 203.43782992 149.00420836 196.94149132 148.99836498 190.44500619 C148.99502223 186.58250986 148.99722865 182.72024212 149.01461601 178.85777855 C149.12206686 152.44708237 147.08951202 130.80970206 127.98681641 110.73632812 C113.58507359 96.49066331 95.56732462 91.12697363 75.82983398 91.10449219 C74.77840714 91.09952728 73.72698029 91.09456238 72.64369202 91.08944702 C69.17781916 91.07488705 65.71199212 91.06803272 62.24609375 91.0625 C61.05640551 91.05967262 59.86671726 91.05684525 58.64097786 91.05393219 C52.34194849 91.03896225 46.04294188 91.02971967 39.74389648 91.02539062 C33.2671089 91.01991754 26.79053277 90.99590753 20.3138113 90.96741867 C15.30777905 90.94870463 10.30179677 90.94358198 5.2957325 90.94205475 C2.90974843 90.93904613 0.52376487 90.93107886 -1.86218452 90.91786957 C-28.93160362 90.77873392 -49.41892299 95.08652456 -68.92578125 115.2890625 Z " fill="#FFFFFF" transform="translate(1159.5,657.734375)"/>
<path d="M0 0 C30.03 0 60.06 0 91 0 C91 54.12 91 108.24 91 164 C135.88 164 180.76 164 227 164 C227 194.03 227 224.06 227 255 C182.12 255 137.24 255 91 255 C91.06140672 296.16803389 91.06140672 296.16803389 91.16015625 337.3359375 C91.17624767 342.89029864 91.19209104 348.44466041 91.20751953 353.99902344 C91.20946347 354.6951378 91.21140741 355.39125216 91.21341026 356.1084609 C91.24440059 367.33534655 91.26139699 378.56221176 91.27319422 389.7891321 C91.28562097 401.31762943 91.31345265 412.84600412 91.35461307 424.3744365 C91.3772367 430.8470106 91.39291012 437.31943226 91.39188385 443.79204941 C91.3911378 449.88730334 91.40906746 455.98222015 91.44116783 462.07738686 C91.44966939 464.31140035 91.45141505 466.54545164 91.44580269 468.77947426 C91.43914537 471.83733228 91.4571257 474.89412313 91.48101807 477.95187378 C91.47325765 478.82933632 91.46549723 479.70679886 91.45750165 480.61085117 C91.55576798 487.74882054 93.27476583 494.39255185 97.63469148 500.16387451 C99 502 99 502 99 504 C99.556875 504.2475 100.11375 504.495 100.6875 504.75 C103 506 103 506 105.25 507.875 C111.07670454 512.37745351 117.13881144 515.0973846 124.54315186 515.15821838 C125.448965 515.1680072 126.35477814 515.17779602 127.28804016 515.18788147 C128.27418808 515.19363693 129.260336 515.1993924 130.27636719 515.20532227 C131.84269142 515.22017166 131.84269142 515.22017166 133.44065857 515.23532104 C136.89270764 515.26691248 140.34477046 515.29168428 143.796875 515.31640625 C146.19012815 515.3369778 148.58337769 515.35797433 150.97662354 515.37937927 C157.27631705 515.43457911 163.57604323 515.48399767 169.87579346 515.53222656 C177.43409297 515.59128787 184.99233275 515.65750441 192.55058289 515.72252655 C204.03368545 515.82050981 215.51682629 515.90938395 227 516 C227 546.03 227 576.06 227 607 C199.56111788 607.12032643 199.56111788 607.12032643 187.75976562 607.14648438 C179.74383029 607.16433682 171.72801288 607.18533197 163.7121582 607.22631836 C157.2411721 607.25919412 150.77029764 607.27691189 144.29923439 607.28463173 C141.84480853 607.29012502 139.39038797 607.30085012 136.93601036 607.31719017 C97.29059589 607.57035232 64.19694403 597.47520034 35.3203125 569.4140625 C8.15113869 542.05654087 -0.35393725 508.08094982 -0.22705078 470.47119141 C-0.22648578 468.11447657 -0.22680497 465.75776138 -0.22793579 463.40104675 C-0.22850681 457.04047712 -0.21679319 450.67998377 -0.20278788 444.31943178 C-0.19151222 438.33440685 -0.18953747 432.34938164 -0.18748413 426.3643481 C-0.18312118 414.52022822 -0.16985035 402.67613609 -0.15087891 390.83203125 C-0.13248367 379.33561338 -0.11834507 367.83920308 -0.10986328 356.34277344 C-0.10907511 355.27745272 -0.10907511 355.27745272 -0.10827102 354.19061036 C-0.10566069 350.62720626 -0.10313334 347.06380211 -0.10064721 343.50039792 C-0.07995838 314.00024432 -0.04311236 284.50013093 0 255 C-19.14 255 -38.28 255 -58 255 C-58 224.97 -58 194.94 -58 164 C-38.86 164 -19.72 164 0 164 C0 109.88 0 55.76 0 0 Z " fill="#FFFFFF" transform="translate(2519,494)"/>
<path d="M0 0 C30.03 0 60.06 0 91 0 C91 200.31 91 400.62 91 607 C60.97 607 30.94 607 0 607 C0 406.69 0 206.38 0 0 Z " fill="#FFFFFF" transform="translate(1497,494)"/>
<path d="M0 0 C30.03 0 60.06 0 91 0 C91 146.19 91 292.38 91 443 C60.97 443 30.94 443 0 443 C0 296.81 0 150.62 0 0 Z " fill="#FFFFFF" transform="translate(2290,658)"/>
<path d="M0 0 C0.80308594 0.350625 1.60617188 0.70125 2.43359375 1.0625 C16.28617668 7.97678749 24.88198877 19.90083007 30.0546875 34.1171875 C34.65367359 48.14219466 33.11754935 64.56807249 26.6796875 77.69140625 C18.78580133 91.81844297 7.22331829 100.7891895 -8 106 C-21.73176153 109.77563321 -38.17444167 107.6935059 -50.6875 101.25 C-51.81246911 100.53157914 -52.91482243 99.77722177 -54 99 C-54.77859375 98.44570313 -55.5571875 97.89140625 -56.359375 97.3203125 C-68.22581456 88.36654447 -76.39777315 76.8291722 -79 62 C-80.55475967 44.36909393 -78.20309624 29.78072692 -67.1171875 15.58984375 C-60.90813347 8.29724891 -53.89843955 2.64027072 -45 -1 C-44.27039062 -1.30035156 -43.54078125 -1.60070312 -42.7890625 -1.91015625 C-29.47796691 -6.42417131 -12.78055656 -5.59034417 0 0 Z " fill="#FFFFFF" transform="translate(2359,487)"/>
</svg>
